<svg xmlns="http://www.w3.org/2000/svg" viewBox="0 0 350 350">
  <title>text_face_2</title>
  <g id="52bbd1b9-8fe2-4148-8aab-d4c5d1bfc050" data-name="Layer 2">
    <g id="164a6689-32e7-407f-981a-5b8022efebdb" data-name="Layer 1">
      <polygon points="0.8 350 294.5 350 350 255.4 349.2 0 25 0 0 30.5 0.8 350" style="fill: #4ec1c6;opacity: 0.64"/>
      <polyline points="21.9 23.1 29.7 11.6 334.4 11.6 334.4 24.2" style="fill: none;stroke: #fff;stroke-miterlimit: 10;stroke-width: 0.9061642404154858px"/>
      <polyline points="296.1 332.1 289.1 343.7 7.8 343.7 7.8 331.1" style="fill: none;stroke: #fff;stroke-miterlimit: 10;stroke-width: 0.9061642404154858px"/>
      <text transform="translate(24.3 111.7)" style="font-size: 14px;fill: #fff;font-family: Xolonium, Xolonium"><tspan style="letter-spacing: -0.011997767857142858em">C</tspan><tspan x="8" y="0">u</tspan><tspan x="15.7" y="0" style="letter-spacing: 0.003976004464285714em">r</tspan><tspan x="20.3" y="0">iosi</tspan><tspan x="40.1" y="0" style="letter-spacing: 0.008998325892857142em">t</tspan><tspan x="44.8" y="0">y is a ca</tspan><tspan x="88.9" y="0" style="letter-spacing: -0.004952566964285714em">r</tspan><tspan x="93.4" y="0">-si</tspan><tspan x="106.6" y="0" style="letter-spacing: -0.006975446428571429em">z</tspan><tspan x="112.4" y="0">e</tspan><tspan x="119.5" y="0" style="letter-spacing: -0.010044642857142858em">d</tspan><tspan x="127.2" y="0">, si</tspan><tspan x="141.9" y="0" style="letter-spacing: -0.005998883928571429em">x</tspan><tspan x="148.3" y="0" style="letter-spacing: -0.004952566964285714em">-</tspan><tspan x="152.5" y="0">wheeled </tspan><tspan x="205.8" y="0" style="letter-spacing: -0.010044642857142858em">r</tspan><tspan x="210.2" y="0">obot destined </tspan><tspan x="0" y="16.8" style="letter-spacing: -0.012974330357142858em">f</tspan><tspan x="3.9" y="16.8">or </tspan><tspan x="19.1" y="16.8" style="letter-spacing: 0.007952008928571428em">G</tspan><tspan x="28.3" y="16.8">ale </tspan><tspan x="48.3" y="16.8" style="letter-spacing: -0.0029296875em">C</tspan><tspan x="56.4" y="16.8" style="letter-spacing: -0.005022321428571429em">r</tspan><tspan x="60.9" y="16.8" style="letter-spacing: -0.003976004464285714em">a</tspan><tspan x="67.6" y="16.8" style="letter-spacing: -0.005998883928571429em">t</tspan><tspan x="72.2" y="16.8">er on </tspan><tspan x="105.1" y="16.8" style="letter-spacing: 0.005998883928571429em">M</tspan><tspan x="116.5" y="16.8">ar</tspan><tspan x="127.8" y="16.8" style="letter-spacing: -0.011021205357142858em">s</tspan><tspan x="133.2" y="16.8">.</tspan><tspan x="0" y="33.6" style="letter-spacing: 0.015973772321428572em">I</tspan><tspan x="3.6" y="33.6">ts mission: </tspan><tspan x="67.4" y="33.6" style="letter-spacing: -0.005998883928571429em">t</tspan><tspan x="71.9" y="33.6">o see if </tspan><tspan x="115.4" y="33.6" style="letter-spacing: 0.005998883928571429em">M</tspan><tspan x="126.8" y="33.6">ars e</tspan><tspan x="153.6" y="33.6" style="letter-spacing: -0.009974888392857142em">v</tspan><tspan x="160.2" y="33.6">er </tspan><tspan x="174.8" y="33.6" style="letter-spacing: -0.005998883928571429em">c</tspan><tspan x="181" y="33.6">ould h</tspan><tspan x="218.3" y="33.6" style="letter-spacing: -0.008021763392857142em">a</tspan><tspan x="224.9" y="33.6" style="letter-spacing: -0.009974888392857142em">v</tspan><tspan x="231.5" y="33.6">e </tspan><tspan x="0" y="50.4">suppo</tspan><tspan x="36.9" y="50.4" style="letter-spacing: 0.023995535714285716em">r</tspan><tspan x="41.8" y="50.4" style="letter-spacing: -0.005998883928571429em">t</tspan><tspan x="46.3" y="50.4">ed small li</tspan><tspan x="104.3" y="50.4" style="letter-spacing: -0.012974330357142858em">f</tspan><tspan x="108.2" y="50.4">e </tspan><tspan x="118.2" y="50.4" style="letter-spacing: -0.012974330357142858em">f</tspan><tspan x="122.1" y="50.4">o</tspan><tspan x="129.8" y="50.4" style="letter-spacing: 0.003976004464285714em">r</tspan><tspan x="134.5" y="50.4">ms called mic</tspan><tspan x="213.4" y="50.4" style="letter-spacing: -0.009974888392857142em">r</tspan><tspan x="217.8" y="50.4">obe</tspan><tspan x="240.5" y="50.4" style="letter-spacing: -0.011021205357142858em">s</tspan><tspan x="245.9" y="50.4">...and if </tspan><tspan x="0" y="67.2">humans </tspan><tspan x="50.2" y="67.2" style="letter-spacing: -0.005998883928571429em">c</tspan><tspan x="56.4" y="67.2">ould su</tspan><tspan x="99.2" y="67.2" style="letter-spacing: 0.024972098214285716em">r</tspan><tspan x="104.1" y="67.2">vi</tspan><tspan x="114.1" y="67.2" style="letter-spacing: -0.009974888392857142em">v</tspan><tspan x="120.7" y="67.2">e the</tspan><tspan x="150.1" y="67.2" style="letter-spacing: -0.009974888392857142em">r</tspan><tspan x="154.6" y="67.2">e somed</tspan><tspan x="204.4" y="67.2" style="letter-spacing: -0.008021763392857142em">a</tspan><tspan x="211" y="67.2">y!</tspan><tspan x="0" y="84" style="letter-spacing: 0.009974888392857142em">I</tspan><tspan x="3.5" y="84">n addition </tspan><tspan x="66.4" y="84" style="letter-spacing: -0.005998883928571429em">t</tspan><tspan x="70.9" y="84">o supe</tspan><tspan x="109.8" y="84" style="letter-spacing: -0.004952566964285714em">r</tspan><tspan x="114.3" y="84">-human senses th</tspan><tspan x="217.1" y="84" style="letter-spacing: -0.004045758928571429em">a</tspan><tspan x="223.8" y="84">t help us </tspan><tspan x="0" y="100.8">understand </tspan><tspan x="70.5" y="100.8" style="letter-spacing: 0.005998883928571429em">M</tspan><tspan x="81.9" y="100.8">ars as a habit</tspan><tspan x="157.1" y="100.8" style="letter-spacing: -0.003976004464285714em">a</tspan><tspan x="163.8" y="100.8">t </tspan><tspan x="171.4" y="100.8" style="letter-spacing: -0.013044084821428572em">f</tspan><tspan x="175.3" y="100.8">or li</tspan><tspan x="197.1" y="100.8" style="letter-spacing: -0.013044084821428572em">f</tspan><tspan x="201" y="100.8" style="letter-spacing: -0.011997767857142858em">e</tspan><tspan x="207.8" y="100.8">, </tspan><tspan x="213.7" y="100.8" style="letter-spacing: -0.011997767857142858em">C</tspan><tspan x="221.7" y="100.8">u</tspan><tspan x="229.4" y="100.8" style="letter-spacing: 0.004045758928571429em">r</tspan><tspan x="234" y="100.8">iosi</tspan><tspan x="253.8" y="100.8" style="letter-spacing: 0.008998325892857142em">t</tspan><tspan x="258.5" y="100.8">y&apos;s </tspan><tspan x="0" y="117.6">pa</tspan><tspan x="14.7" y="117.6" style="letter-spacing: 0.023995535714285716em">r</tspan><tspan x="19.6" y="117.6">ts a</tspan><tspan x="39.5" y="117.6" style="letter-spacing: -0.009974888392857142em">r</tspan><tspan x="44" y="117.6">e similar </tspan><tspan x="95.3" y="117.6" style="letter-spacing: -0.005998883928571429em">t</tspan><tspan x="99.9" y="117.6">o wh</tspan><tspan x="128.6" y="117.6" style="letter-spacing: -0.004045758928571429em">a</tspan><tspan x="135.3" y="117.6">t a human </tspan><tspan x="197.2" y="117.6" style="letter-spacing: -0.009974888392857142em">w</tspan><tspan x="207.4" y="117.6">ould need </tspan><tspan x="0" y="134.4" style="letter-spacing: -0.005998883928571429em">t</tspan><tspan x="4.5" y="134.4">o </tspan><tspan x="15.2" y="134.4" style="letter-spacing: -0.0029994419642857145em">e</tspan><tspan x="22.2" y="134.4">xplo</tspan><tspan x="47.6" y="134.4" style="letter-spacing: -0.009974888392857142em">r</tspan><tspan x="52.1" y="134.4">e </tspan><tspan x="62" y="134.4" style="letter-spacing: 0.005998883928571429em">M</tspan><tspan x="73.4" y="134.4">ars (bod</tspan><tspan x="120.7" y="134.4" style="letter-spacing: -0.03899274553571429em">y</tspan><tspan x="126.8" y="134.4">, b</tspan><tspan x="140.6" y="134.4" style="letter-spacing: -0.005022321428571429em">r</tspan><tspan x="145.1" y="134.4">ain</tspan><tspan x="162.9" y="134.4" style="letter-spacing: -0.010951450892857142em">s</tspan><tspan x="168.3" y="134.4">, e</tspan><tspan x="181.2" y="134.4" style="letter-spacing: -0.009974888392857142em">y</tspan><tspan x="187.6" y="134.4">e</tspan><tspan x="194.7" y="134.4" style="letter-spacing: -0.011021205357142858em">s</tspan><tspan x="200" y="134.4">, a</tspan><tspan x="212.7" y="134.4" style="letter-spacing: 0.003976004464285714em">r</tspan><tspan x="217.3" y="134.4">m, </tspan></text>
      <text transform="translate(25.1 74.2)" style="font-size: 16.9018497467041px;font-family: Xolonium-Bold, Xolonium Bold;font-weight: 700;letter-spacing: 0.09995670002506366em">DESCRIPTION</text>
    </g>
  </g>
</svg>
