<svg xmlns="http://www.w3.org/2000/svg" viewBox="0 0 1181 275"><defs><style>.cls-1{fill:#fff;}.cls-2{fill:#4ec1c6;}</style></defs><title>text_face_0</title><g id="Layer_2" data-name="Layer 2"><g id="Layer_1-2" data-name="Layer 1"><rect class="cls-1" x="62" width="1119" height="275"/><rect width="311" height="275"/><path d="M350.1,56.1V53.6H359c.5,0,.8-.2.8-.6V50.7c0-.4-.3-.6-.8-.6h-5.3c-2.4,0-3.6-1-3.6-2.9V45.1c0-1.9,1.2-2.9,3.6-2.9h9.2v2.5H355c-.5,0-.7.2-.7.6V47c0,.4.2.6.7.6h5.4c2.4,0,3.6.9,3.6,2.8v2.8c0,1.9-1.2,2.9-3.6,2.9Z"/><path d="M367.1,44.7V42.2h15.6v2.5H377V56.1h-4.2V44.7Z"/><path d="M386.6,56.1V42.2h13.5v2.5h-9.3v2.9H399v2.5h-8.2v3.5h9.3v2.5Z"/><path d="M404.7,56.1V42.2H415c2.4,0,3.6,1,3.6,2.9v3.2c0,1.9-1.2,2.8-3.6,2.8h-6.1v5Zm4.2-7.5h4.7c.5,0,.8-.2.8-.6V45.3c0-.4-.3-.6-.8-.6h-4.7Z"/><path d="M433.6,44.7V42.2h8V56.1h-4.2V44.7Z"/><path d="M349.7,100.3c0-3.9,2.3-6.5,5.8-6.5a5,5,0,0,1,5.2,4.2h-1.6a3.6,3.6,0,0,0-3.6-2.8c-2.5,0-4.1,2.1-4.1,5.1s1.6,5.1,4.1,5.1a3.5,3.5,0,0,0,3.6-2.4h1.6c-.6,2.5-2.4,3.9-5.2,3.9S349.7,104.4,349.7,100.3Z"/><path d="M369.8,106.7h-1.4v-1.5h0a3,3,0,0,1-2.9,1.6,3,3,0,0,1-3.2-3.3v-6h1.5v5.7c0,1.5.7,2.3,2.1,2.3a2.3,2.3,0,0,0,2.4-2.6V97.5h1.5Z"/><path d="M371.8,97.5h1.5V99h0a2.2,2.2,0,0,1,2.2-1.6h.6v1.5h-.8c-1.2,0-1.9.9-1.9,2.2v5.7h-1.6Z"/><path d="M377.3,95.1a.9.9,0,0,1,.9-1,1,1,0,0,1,1,1,1,1,0,0,1-1,.9A.9.9,0,0,1,377.3,95.1Zm.2,2.4H379v9.2h-1.5Z"/><path d="M380.6,102.1c0-2.9,1.7-4.7,4.2-4.7s4.3,1.8,4.3,4.7-1.7,4.7-4.3,4.7S380.6,105,380.6,102.1Zm6.9,0c0-2.1-1-3.4-2.7-3.4s-2.6,1.3-2.6,3.4,1,3.4,2.6,3.4S387.5,104.3,387.5,102.1Z"/><path d="M393.9,97.4a3,3,0,0,1,3.3,2.7h-1.5a1.7,1.7,0,0,0-1.9-1.5c-1.1,0-1.9.6-1.9,1.4s.5,1,1.6,1.3l1.4.3c1.8.5,2.5,1.2,2.5,2.5s-1.5,2.7-3.6,2.7-3.4-1-3.6-2.7h1.5c.2,1,.9,1.5,2.2,1.5s2-.5,2-1.4-.4-1-1.5-1.2l-1.6-.4c-1.6-.5-2.4-1.3-2.4-2.5S391.8,97.4,393.9,97.4Z"/><path d="M398.9,95.1a.9.9,0,0,1,.9-1,1,1,0,0,1,1,1,1,1,0,0,1-1,.9A.9.9,0,0,1,398.9,95.1Zm.2,2.4h1.5v9.2h-1.5Z"/><path d="M404.7,95.3v2.2h1.7v1.3h-1.7v5.4c0,.9.3,1.2,1.1,1.2h.6v1.3h-.9c-1.7,0-2.4-.7-2.4-2.5V98.8h-1.3V97.5h1.3V95.3Z"/><path d="M408.2,110v-1.2h.6c.8,0,1.3-.4,1.6-1.5l.3-.6-3.4-9.2h1.6l2.5,7.7h.1l2.5-7.7h1.6l-3.6,9.8c-.8,2.2-1.5,2.8-3.2,2.8Z"/><path d="M420.4,95.1a.9.9,0,0,1,1-1,.9.9,0,0,1,.9,1,.9.9,0,0,1-.9.9A.9.9,0,0,1,420.4,95.1Zm.2,2.4h1.5v9.2h-1.5Z"/><path d="M427.4,97.4c1.9,0,3.3,1.1,3.4,2.7h-1.5a1.7,1.7,0,0,0-1.9-1.5c-1.1,0-1.9.6-1.9,1.4s.5,1,1.5,1.3l1.5.3c1.8.5,2.5,1.2,2.5,2.5s-1.5,2.7-3.7,2.7-3.4-1-3.5-2.7h1.5a1.8,1.8,0,0,0,2.1,1.5c1.3,0,2-.5,2-1.4s-.3-1-1.4-1.2l-1.6-.4c-1.6-.5-2.4-1.3-2.4-2.5S425.4,97.4,427.4,97.4Z"/><path d="M435.9,104.1c0-1.6,1.2-2.6,3.3-2.7h2.6v-.8c0-1.1-.7-1.8-2-1.8a1.9,1.9,0,0,0-2.1,1.5h-1.5c.1-1.6,1.5-2.8,3.6-2.8s3.5,1.1,3.5,3v6.3h-1.4v-1.6h0a3.3,3.3,0,0,1-3,1.7A2.7,2.7,0,0,1,435.9,104.1Zm5.9-.9v-.7h-2.4c-1.3.1-2,.6-2,1.5s.8,1.4,1.9,1.4A2.4,2.4,0,0,0,441.8,103.2Z"/><path d="M455.1,100.5a2.2,2.2,0,0,0-2.4-1.8c-1.5,0-2.6,1.3-2.6,3.4s1.1,3.4,2.7,3.4a2.3,2.3,0,0,0,2.3-1.8h1.5a3.7,3.7,0,0,1-3.9,3.1c-2.5,0-4.2-1.7-4.2-4.7s1.7-4.7,4.2-4.7a3.7,3.7,0,0,1,3.9,3.1Z"/><path d="M457.6,104.1c0-1.6,1.2-2.6,3.3-2.7h2.7v-.8a1.8,1.8,0,0,0-2-1.8,2,2,0,0,0-2.2,1.5H458c.1-1.6,1.4-2.8,3.6-2.8s3.5,1.1,3.5,3v6.3h-1.5v-1.6h0a3.1,3.1,0,0,1-2.9,1.7C458.8,106.8,457.6,105.7,457.6,104.1Zm6-.9v-.7h-2.5c-1.2.1-1.9.6-1.9,1.5s.7,1.4,1.8,1.4A2.5,2.5,0,0,0,463.6,103.2Z"/><path d="M467,97.5h1.5V99h0a2.2,2.2,0,0,1,2.2-1.6h.6v1.5h-.8c-1.2,0-1.9.9-1.9,2.2v5.7H467Z"/><path d="M472.2,102.3v-1.5H478v1.5Z"/><path d="M483.2,97.4c1.9,0,3.3,1.1,3.3,2.7h-1.4c-.1-.9-.8-1.5-2-1.5s-1.8.6-1.8,1.4.5,1,1.5,1.3l1.4.3c1.9.5,2.5,1.2,2.5,2.5s-1.5,2.7-3.6,2.7-3.4-1-3.6-2.7h1.6c.1,1,.9,1.5,2.1,1.5s2-.5,2-1.4-.4-1-1.4-1.2l-1.6-.4c-1.6-.5-2.4-1.3-2.4-2.5S481.2,97.4,483.2,97.4Z"/><path d="M488.2,95.1a.9.9,0,0,1,1-1,.9.9,0,0,1,.9,1,.9.9,0,0,1-.9.9A.9.9,0,0,1,488.2,95.1Zm.2,2.4h1.5v9.2h-1.5Z"/><path d="M491.8,105.6l5.1-6.8h-5.1V97.5h6.8v1.2l-5,6.7h5v1.3h-6.8Z"/><path d="M507.6,104.1c-.2,1.6-1.8,2.7-3.8,2.7s-4.2-1.8-4.2-4.7,1.6-4.7,4.1-4.7,4,1.8,4,4.5v.6h-6.5a2.6,2.6,0,0,0,2.7,2.9,2.2,2.2,0,0,0,2.2-1.4Zm-6.4-2.8h5a2.5,2.5,0,0,0-2.5-2.6A2.6,2.6,0,0,0,501.2,101.3Z"/><path d="M508.8,102.1c0-2.9,1.6-4.7,3.9-4.7a3.1,3.1,0,0,1,2.9,1.6h0V94h1.6v12.7h-1.5v-1.6h0a3.2,3.2,0,0,1-3,1.7C510.4,106.8,508.8,105,508.8,102.1Zm1.6,0c0,2.1,1,3.4,2.6,3.4s2.7-1.3,2.7-3.4-1.1-3.4-2.7-3.4S510.4,100,510.4,102.1Z"/><path d="M519,109.2l.9-4.5h1.6l-1.2,4.5Z"/><path d="M529.9,97.4c1.9,0,3.3,1.1,3.3,2.7h-1.4c-.1-.9-.8-1.5-2-1.5s-1.8.6-1.8,1.4.5,1,1.5,1.3l1.4.3c1.9.5,2.5,1.2,2.5,2.5s-1.5,2.7-3.6,2.7-3.4-1-3.6-2.7h1.6q.2,1.5,2.1,1.5c1.2,0,2-.5,2-1.4s-.4-1-1.4-1.2l-1.6-.4c-1.6-.5-2.4-1.3-2.4-2.5S527.9,97.4,529.9,97.4Z"/><path d="M534.9,95.1a.9.9,0,0,1,.9-1,.9.9,0,0,1,1,1,.9.9,0,0,1-1,.9A.9.9,0,0,1,534.9,95.1Zm.2,2.4h1.5v9.2h-1.5Z"/><path d="M541.9,103.2l-2.2,3.5H538l3.1-4.6L538,97.5h1.7l2.2,3.5h.1l2.1-3.5h1.7l-3,4.6,3,4.6h-1.7l-2.2-3.5Z"/><path d="M546.8,102.3v-1.5h5.7v1.5Z"/><path d="M563.6,106.7H562l-2.1-7.1h0l-2,7.1h-1.6l-2.6-9.2h1.6l1.8,7.5h0l2.1-7.5h1.5l2,7.5h.1l1.8-7.5h1.5Z"/><path d="M567.4,94H569v5h0a3,3,0,0,1,2.9-1.6c2,0,3.2,1.3,3.2,3.4v5.9h-1.5v-5.6c0-1.5-.7-2.4-2.2-2.4a2.4,2.4,0,0,0-2.4,2.7v5.3h-1.6Z"/><path d="M584.6,104.1c-.2,1.6-1.8,2.7-3.8,2.7s-4.2-1.8-4.2-4.7,1.6-4.7,4.2-4.7,3.9,1.8,3.9,4.5v.6h-6.5a2.6,2.6,0,0,0,2.7,2.9,2.2,2.2,0,0,0,2.2-1.4Zm-6.4-2.8h5a2.5,2.5,0,0,0-2.5-2.6A2.6,2.6,0,0,0,578.2,101.3Z"/><path d="M593.9,104.1c-.3,1.6-1.9,2.7-3.9,2.7s-4.2-1.8-4.2-4.7,1.7-4.7,4.2-4.7,4,1.8,4,4.5v.6h-6.6a2.6,2.6,0,0,0,2.7,2.9,2.4,2.4,0,0,0,2.3-1.4Zm-6.5-2.8h5a2.4,2.4,0,0,0-2.4-2.6A2.6,2.6,0,0,0,587.4,101.3Z"/><path d="M595.6,94h1.5v12.7h-1.5Z"/><path d="M606.7,104.1c-.2,1.6-1.8,2.7-3.8,2.7s-4.2-1.8-4.2-4.7,1.6-4.7,4.2-4.7,4,1.8,4,4.5v.6h-6.6a2.6,2.6,0,0,0,2.7,2.9,2.2,2.2,0,0,0,2.2-1.4Zm-6.4-2.8h5a2.5,2.5,0,0,0-2.5-2.6A2.6,2.6,0,0,0,600.3,101.3Z"/><path d="M608,102.1c0-2.9,1.5-4.7,3.8-4.7a3.1,3.1,0,0,1,2.9,1.6h.1V94h1.5v12.7h-1.5v-1.6h0a3.1,3.1,0,0,1-2.9,1.7C609.5,106.8,608,105,608,102.1Zm1.5,0c0,2.1,1,3.4,2.7,3.4s2.6-1.3,2.6-3.4-1.1-3.4-2.6-3.4S609.5,100,609.5,102.1Z"/><path d="M622.1,97.5h1.4V99h0a2.3,2.3,0,0,1,2.3-1.6h.6v1.5h-.9a2,2,0,0,0-1.9,2.2v5.7h-1.5Z"/><path d="M626.7,102.1c0-2.9,1.7-4.7,4.3-4.7s4.2,1.8,4.2,4.7-1.7,4.7-4.2,4.7S626.7,105,626.7,102.1Zm6.9,0c0-2.1-1-3.4-2.6-3.4s-2.7,1.3-2.7,3.4,1,3.4,2.7,3.4S633.6,104.3,633.6,102.1Z"/><path d="M638.3,105.1h0v1.6h-1.5V94h1.5v5.1h.1a3,3,0,0,1,2.9-1.7c2.3,0,3.8,1.8,3.8,4.7s-1.5,4.7-3.8,4.7A3.2,3.2,0,0,1,638.3,105.1Zm0-3c0,2.1,1.1,3.4,2.7,3.4s2.6-1.3,2.6-3.4-1-3.4-2.6-3.4S638.3,100.1,638.3,102.1Z"/><path d="M646.2,102.1c0-2.9,1.8-4.7,4.3-4.7s4.2,1.8,4.2,4.7-1.7,4.7-4.2,4.7S646.2,105,646.2,102.1Zm7,0c0-2.1-1.1-3.4-2.7-3.4s-2.7,1.3-2.7,3.4,1.1,3.4,2.7,3.4S653.2,104.3,653.2,102.1Z"/><path d="M658.3,95.3v2.2H660v1.3h-1.7v5.4c0,.9.3,1.2,1.1,1.2h.6v1.3h-.9c-1.7,0-2.4-.7-2.4-2.5V98.8h-1.3V97.5h1.3V95.3Z"/><path d="M664.9,102.1c0-2.9,1.6-4.7,3.9-4.7a3.1,3.1,0,0,1,2.9,1.6h0V94h1.6v12.7h-1.5v-1.6h0a3.3,3.3,0,0,1-3,1.7C666.5,106.8,664.9,105,664.9,102.1Zm1.6,0c0,2.1,1,3.4,2.6,3.4s2.6-1.3,2.6-3.4-1-3.4-2.6-3.4S666.5,100,666.5,102.1Z"/><path d="M682.9,104.1a3.6,3.6,0,0,1-3.8,2.7c-2.6,0-4.2-1.8-4.2-4.7s1.6-4.7,4.1-4.7,4,1.8,4,4.5v.6h-6.5c0,1.8,1,2.9,2.6,2.9a2.3,2.3,0,0,0,2.3-1.4Zm-6.4-2.8h4.9a2.4,2.4,0,0,0-2.4-2.6A2.6,2.6,0,0,0,676.5,101.3Z"/><path d="M687.8,97.4c1.9,0,3.3,1.1,3.3,2.7h-1.4c-.1-.9-.8-1.5-2-1.5s-1.8.6-1.8,1.4.5,1,1.5,1.3l1.4.3c1.9.5,2.5,1.2,2.5,2.5s-1.5,2.7-3.6,2.7-3.4-1-3.6-2.7h1.6c.1,1,.9,1.5,2.1,1.5s2-.5,2-1.4-.4-1-1.4-1.2l-1.6-.4c-1.6-.5-2.4-1.3-2.4-2.5S685.8,97.4,687.8,97.4Z"/><path d="M694.9,95.3v2.2h1.8v1.3h-1.8v5.4c0,.9.4,1.2,1.2,1.2h.6v1.3h-1c-1.6,0-2.3-.7-2.3-2.5V98.8h-1.3V97.5h1.3V95.3Z"/><path d="M698.2,95.1a1,1,0,0,1,1-1,.9.9,0,0,1,.9,1,.9.9,0,0,1-.9.9A1,1,0,0,1,698.2,95.1Zm.2,2.4H700v9.2h-1.6Z"/><path d="M702,97.5h1.5V99h0a3,3,0,0,1,2.9-1.6c2,0,3.2,1.3,3.2,3.4v5.9H708V101c0-1.5-.7-2.3-2.1-2.3a2.3,2.3,0,0,0-2.3,2.6v5.4H702Z"/><path d="M719.1,104.1a3.6,3.6,0,0,1-3.8,2.7c-2.7,0-4.2-1.8-4.2-4.7s1.6-4.7,4.1-4.7,4,1.8,4,4.5v.6h-6.6a2.6,2.6,0,0,0,2.7,2.9,2.3,2.3,0,0,0,2.3-1.4Zm-6.5-2.8h5a2.4,2.4,0,0,0-2.4-2.6A2.6,2.6,0,0,0,712.6,101.3Z"/><path d="M720.3,102.1c0-2.9,1.5-4.7,3.9-4.7a3.2,3.2,0,0,1,2.9,1.6h0V94h1.5v12.7h-1.4v-1.6h-.1a3,3,0,0,1-2.9,1.7C721.9,106.8,720.3,105,720.3,102.1Zm1.5,0c0,2.1,1.1,3.4,2.7,3.4s2.6-1.3,2.6-3.4-1-3.4-2.6-3.4S721.8,100,721.8,102.1Z"/><path d="M734.9,98.8h-1.3V97.5h1.3v-1c0-1.7.8-2.6,2.5-2.6h.9v1.2h-.7c-.8,0-1.2.4-1.2,1.3v1h1.9v1.3h-1.9v7.9h-1.5Z"/><path d="M739,102.1c0-2.9,1.7-4.7,4.2-4.7s4.2,1.8,4.2,4.7-1.7,4.7-4.2,4.7S739,105,739,102.1Zm6.9,0c0-2.1-1.1-3.4-2.7-3.4s-2.7,1.3-2.7,3.4,1.1,3.4,2.7,3.4S745.9,104.3,745.9,102.1Z"/><path d="M749,97.5h1.4V99h0a2.3,2.3,0,0,1,2.3-1.6h.6v1.5h-.8a2,2,0,0,0-2,2.2v5.7H749Z"/><path d="M763.8,106.9c-3.6,0-5.9-2.6-5.9-6.6s2.3-6.5,5.9-6.5a5.1,5.1,0,0,1,5.3,4.1h-1.7a3.6,3.6,0,0,0-3.6-2.7c-2.7,0-4.2,1.9-4.2,5.1s1.6,5.1,4.2,5.1a3.5,3.5,0,0,0,3.8-3.6v-.2H764v-1.4h5.1v1.2C769.1,104.9,767.1,106.9,763.8,106.9Z"/><path d="M770.5,104.1c0-1.6,1.3-2.6,3.4-2.7h2.6v-.8a1.8,1.8,0,0,0-2-1.8,1.9,1.9,0,0,0-2.1,1.5h-1.5c.1-1.6,1.5-2.8,3.6-2.8s3.5,1.1,3.5,3v6.3h-1.4v-1.6h-.1a3.1,3.1,0,0,1-2.9,1.7A2.8,2.8,0,0,1,770.5,104.1Zm6-.9v-.7H774c-1.2.1-1.9.6-1.9,1.5s.7,1.4,1.8,1.4A2.4,2.4,0,0,0,776.5,103.2Z"/><path d="M780,94h1.6v12.7H780Z"/><path d="M791.2,104.1a3.6,3.6,0,0,1-3.8,2.7c-2.6,0-4.2-1.8-4.2-4.7s1.6-4.7,4.1-4.7,4,1.8,4,4.5v.6h-6.5c0,1.8,1,2.9,2.6,2.9a2.3,2.3,0,0,0,2.3-1.4Zm-6.4-2.8h4.9a2.4,2.4,0,0,0-2.4-2.6A2.6,2.6,0,0,0,784.8,101.3Z"/><path d="M796.3,100.3c0-3.9,2.2-6.5,5.7-6.5a5.1,5.1,0,0,1,5.3,4.2h-1.6a3.7,3.7,0,0,0-3.7-2.8c-2.5,0-4.1,2.1-4.1,5.1s1.6,5.1,4.1,5.1a3.6,3.6,0,0,0,3.7-2.4h1.6c-.6,2.5-2.5,3.9-5.3,3.9S796.3,104.4,796.3,100.3Z"/><path d="M808.9,97.5h1.4V99h.1a2.2,2.2,0,0,1,2.2-1.6h.6v1.5h-.8a2,2,0,0,0-2,2.2v5.7h-1.5Z"/><path d="M813.9,104.1c0-1.6,1.2-2.6,3.3-2.7h2.6v-.8c0-1.1-.7-1.8-2-1.8a1.9,1.9,0,0,0-2.1,1.5h-1.5c.1-1.6,1.5-2.8,3.7-2.8s3.5,1.1,3.5,3v6.3h-1.5v-1.6h0a3.3,3.3,0,0,1-3,1.7A2.7,2.7,0,0,1,813.9,104.1Zm5.9-.9v-.7h-2.4c-1.3.1-2,.6-2,1.5s.8,1.4,1.9,1.4A2.4,2.4,0,0,0,819.8,103.2Z"/><path d="M825.3,95.3v2.2h1.8v1.3h-1.8v5.4c0,.9.4,1.2,1.1,1.2h.7v1.3h-1c-1.7,0-2.3-.7-2.3-2.5V98.8h-1.4V97.5h1.4V95.3Z"/><path d="M836,104.1c-.2,1.6-1.8,2.7-3.8,2.7s-4.2-1.8-4.2-4.7,1.6-4.7,4.1-4.7,4,1.8,4,4.5v.6h-6.5c0,1.8,1,2.9,2.6,2.9a2.2,2.2,0,0,0,2.3-1.4Zm-6.4-2.8h5a2.5,2.5,0,0,0-2.5-2.6A2.6,2.6,0,0,0,829.6,101.3Z"/><path d="M837.7,97.5h1.4V99h0a2.3,2.3,0,0,1,2.3-1.6h.6v1.5h-.8a2,2,0,0,0-2,2.2v5.7h-1.5Z"/><path d="M846.5,102.1c0-2.9,1.7-4.7,4.2-4.7s4.2,1.8,4.2,4.7-1.7,4.7-4.2,4.7S846.5,105,846.5,102.1Zm6.9,0c0-2.1-1.1-3.4-2.7-3.4s-2.7,1.3-2.7,3.4,1.1,3.4,2.7,3.4S853.4,104.3,853.4,102.1Z"/><path d="M856.5,97.5h1.4V99h0a3,3,0,0,1,2.9-1.6c2,0,3.2,1.3,3.2,3.4v5.9h-1.5V101c0-1.5-.7-2.3-2.1-2.3a2.4,2.4,0,0,0-2.4,2.6v5.4h-1.5Z"/><path d="M880.9,106.7V96.9h-.1l-4,9.7h-1.3l-4.1-9.7h0v9.8h-1.5V94h1.8l4.4,10.6h.1L880.5,94h1.9v12.7Z"/><path d="M884,104.1c0-1.6,1.2-2.6,3.3-2.7h2.6v-.8c0-1.1-.7-1.8-2-1.8a1.9,1.9,0,0,0-2.1,1.5h-1.5c.1-1.6,1.5-2.8,3.6-2.8s3.5,1.1,3.5,3v6.3H890v-1.6h-.1a3.1,3.1,0,0,1-2.9,1.7A2.7,2.7,0,0,1,884,104.1Zm5.9-.9v-.7h-2.4c-1.3.1-2,.6-2,1.5s.7,1.4,1.8,1.4A2.4,2.4,0,0,0,889.9,103.2Z"/><path d="M893.4,97.5h1.4V99h0a2.3,2.3,0,0,1,2.3-1.6h.6v1.5h-.8a2,2,0,0,0-2,2.2v5.7h-1.5Z"/><path d="M902.2,97.4c1.9,0,3.2,1.1,3.3,2.7h-1.4a1.8,1.8,0,0,0-2-1.5c-1.1,0-1.8.6-1.8,1.4s.4,1,1.5,1.3l1.4.3c1.8.5,2.5,1.2,2.5,2.5s-1.5,2.7-3.6,2.7-3.4-1-3.6-2.7H900c.2,1,.9,1.5,2.2,1.5s2-.5,2-1.4-.4-1-1.4-1.2l-1.6-.4c-1.7-.5-2.4-1.3-2.4-2.5S900.2,97.4,902.2,97.4Z"/><path d="M907.6,105.8a.9.9,0,0,1,1-1,1,1,0,0,1,1,1,1.1,1.1,0,0,1-1,1A1,1,0,0,1,907.6,105.8Z"/><path d="M350.2,128.3V115.6h1.6v12.7Z"/><path d="M356.1,116.9v2.2h1.7v1.3h-1.7v5.4c0,.9.3,1.2,1.1,1.2h.6v1.3h-.9c-1.7,0-2.4-.7-2.4-2.5v-5.5h-1.3v-1.3h1.3v-2.2Z"/><path d="M362.7,119c1.9,0,3.3,1.1,3.4,2.7h-1.5a1.7,1.7,0,0,0-1.9-1.5c-1.2,0-1.9.6-1.9,1.4s.5,1,1.5,1.3l1.4.3c1.9.5,2.6,1.2,2.6,2.5s-1.5,2.7-3.7,2.7-3.4-1-3.5-2.7h1.5a1.8,1.8,0,0,0,2.1,1.5c1.3,0,2-.5,2-1.4s-.4-1-1.4-1.2l-1.6-.4c-1.6-.5-2.4-1.3-2.4-2.5S360.7,119,362.7,119Z"/><path d="M371.5,119.1H373v1.5h0a2.7,2.7,0,0,1,2.6-1.6,2.6,2.6,0,0,1,2.6,1.7h0a3,3,0,0,1,2.9-1.7,2.8,2.8,0,0,1,2.9,3v6.3h-1.5v-6a1.8,1.8,0,0,0-1.9-2,2.1,2.1,0,0,0-2.1,2.2v5.8H377v-6.1a1.8,1.8,0,0,0-1.9-1.9,2.1,2.1,0,0,0-2,2.3v5.7h-1.6Z"/><path d="M385.9,116.7a.9.9,0,0,1,.9-1,.9.9,0,0,1,1,1,.9.9,0,0,1-1,.9A.9.9,0,0,1,385.9,116.7Zm.2,2.4h1.5v9.2h-1.5Z"/><path d="M392.9,119c1.9,0,3.3,1.1,3.4,2.7h-1.5a1.7,1.7,0,0,0-1.9-1.5c-1.2,0-1.9.6-1.9,1.4s.5,1,1.5,1.3l1.4.3c1.9.5,2.6,1.2,2.6,2.5s-1.6,2.7-3.7,2.7-3.4-1-3.5-2.7h1.5a1.8,1.8,0,0,0,2.1,1.5c1.2,0,2-.5,2-1.4s-.4-1-1.4-1.2l-1.6-.4c-1.6-.5-2.4-1.3-2.4-2.5S390.9,119,392.9,119Z"/><path d="M401.3,119c1.9,0,3.3,1.1,3.3,2.7h-1.4c-.1-.9-.8-1.5-2-1.5s-1.8.6-1.8,1.4.5,1,1.5,1.3l1.4.3c1.9.5,2.5,1.2,2.5,2.5s-1.5,2.7-3.6,2.7-3.4-1-3.6-2.7h1.6q.2,1.5,2.1,1.5c1.2,0,2-.5,2-1.4s-.4-1-1.4-1.2l-1.6-.4c-1.6-.5-2.4-1.3-2.4-2.5S399.3,119,401.3,119Z"/><path d="M406.3,116.7a.9.9,0,0,1,1-1,.9.9,0,0,1,.9,1,.9.9,0,0,1-.9.9A.9.9,0,0,1,406.3,116.7Zm.2,2.4H408v9.2h-1.5Z"/><path d="M409.6,123.7c0-2.9,1.7-4.7,4.3-4.7s4.2,1.8,4.2,4.7-1.7,4.7-4.2,4.7S409.6,126.6,409.6,123.7Zm6.9,0c0-2.1-1-3.4-2.6-3.4s-2.7,1.3-2.7,3.4,1.1,3.4,2.7,3.4S416.5,125.9,416.5,123.7Z"/><path d="M419.6,119.1h1.5v1.5h0a3.3,3.3,0,0,1,6.1,1.7v6h-1.6v-5.7c0-1.5-.6-2.3-2.1-2.3a2.3,2.3,0,0,0-2.3,2.6v5.4h-1.6Z"/><path d="M429.4,120.9a1,1,0,0,1,1-1,1,1,0,0,1,0,2A1,1,0,0,1,429.4,120.9Zm0,6.5a1,1,0,0,1,1-1,.9.9,0,0,1,1,1,1,1,0,0,1-1,1A1.1,1.1,0,0,1,429.4,127.4Z"/><path d="M439.4,116.9v2.2h1.8v1.3h-1.8v5.4c0,.9.4,1.2,1.1,1.2h.7v1.3h-1c-1.7,0-2.3-.7-2.3-2.5v-5.5h-1.4v-1.3h1.4v-2.2Z"/><path d="M442.1,123.7c0-2.9,1.7-4.7,4.2-4.7s4.3,1.8,4.3,4.7-1.7,4.7-4.3,4.7S442.1,126.6,442.1,123.7Zm6.9,0c0-2.1-1.1-3.4-2.7-3.4s-2.7,1.3-2.7,3.4,1.1,3.4,2.7,3.4S449,125.9,449,123.7Z"/><path d="M459,119c1.9,0,3.3,1.1,3.4,2.7h-1.5a1.7,1.7,0,0,0-1.9-1.5c-1.1,0-1.9.6-1.9,1.4s.5,1,1.6,1.3l1.4.3c1.8.5,2.5,1.2,2.5,2.5s-1.5,2.7-3.7,2.7-3.4-1-3.5-2.7h1.5a1.8,1.8,0,0,0,2.1,1.5c1.3,0,2-.5,2-1.4s-.3-1-1.4-1.2l-1.6-.4c-1.6-.5-2.4-1.3-2.4-2.5S457,119,459,119Z"/><path d="M471.7,125.7c-.2,1.6-1.8,2.7-3.8,2.7s-4.2-1.8-4.2-4.7,1.6-4.7,4.2-4.7,3.9,1.8,3.9,4.5v.6h-6.5a2.6,2.6,0,0,0,2.7,2.9,2.2,2.2,0,0,0,2.2-1.4Zm-6.4-2.8h5a2.5,2.5,0,0,0-2.5-2.6A2.6,2.6,0,0,0,465.3,122.9Z"/><path d="M481,125.7c-.3,1.6-1.9,2.7-3.9,2.7s-4.2-1.8-4.2-4.7,1.7-4.7,4.2-4.7,4,1.8,4,4.5v.6h-6.6a2.6,2.6,0,0,0,2.7,2.9,2.2,2.2,0,0,0,2.2-1.4Zm-6.5-2.8h5a2.5,2.5,0,0,0-2.5-2.6A2.6,2.6,0,0,0,474.5,122.9Z"/><path d="M486.2,116.7a.9.9,0,0,1,.9-1,.9.9,0,0,1,1,1,.9.9,0,0,1-1,.9A.9.9,0,0,1,486.2,116.7Zm.2,2.4h1.5v9.2h-1.5Z"/><path d="M490.5,120.4h-1.3v-1.3h1.3v-1c0-1.7.8-2.6,2.5-2.6h.9v1.2h-.7c-.8,0-1.2.4-1.2,1.3v1h1.9v1.3H492v7.9h-1.5Z"/><path d="M510.4,128.3v-9.8h-.1l-4,9.7h-1.4l-4-9.7h-.1v9.8h-1.4V115.6h1.8l4.4,10.6h0l4.4-10.6h1.9v12.7Z"/><path d="M513.5,125.7c0-1.6,1.2-2.6,3.3-2.7h2.6v-.8a1.8,1.8,0,0,0-2-1.8,1.9,1.9,0,0,0-2.1,1.5h-1.5c.1-1.6,1.5-2.8,3.6-2.8s3.5,1.1,3.5,3v6.3h-1.4v-1.6h-.1a3.1,3.1,0,0,1-2.9,1.7A2.7,2.7,0,0,1,513.5,125.7Zm5.9-.9v-.7h-2.5c-1.2.1-1.9.6-1.9,1.5s.7,1.4,1.8,1.4A2.4,2.4,0,0,0,519.4,124.8Z"/><path d="M522.9,119.1h1.4v1.5h0a2.2,2.2,0,0,1,2.2-1.6h.7v1.5h-.9a2,2,0,0,0-1.9,2.2v5.7h-1.5Z"/><path d="M531.7,119a3,3,0,0,1,3.3,2.7h-1.5a1.7,1.7,0,0,0-1.9-1.5c-1.1,0-1.9.6-1.9,1.4s.5,1,1.6,1.3l1.4.3c1.8.5,2.5,1.2,2.5,2.5s-1.5,2.7-3.6,2.7-3.4-1-3.6-2.7h1.5c.2,1,.9,1.5,2.2,1.5s2-.5,2-1.4-.4-1-1.4-1.2l-1.7-.4c-1.6-.5-2.4-1.3-2.4-2.5S529.6,119,531.7,119Z"/><path d="M548,125.7c-.2,1.6-1.8,2.7-3.8,2.7s-4.2-1.8-4.2-4.7,1.6-4.7,4.2-4.7,4,1.8,4,4.5v.6h-6.6a2.6,2.6,0,0,0,2.7,2.9,2.2,2.2,0,0,0,2.2-1.4Zm-6.4-2.8h5a2.5,2.5,0,0,0-2.5-2.6A2.6,2.6,0,0,0,541.6,122.9Z"/><path d="M553.8,128.3h-1.5l-3.4-9.2h1.6l2.5,7.6h.1l2.5-7.6h1.6Z"/><path d="M565.7,125.7a3.6,3.6,0,0,1-3.8,2.7c-2.6,0-4.2-1.8-4.2-4.7s1.6-4.7,4.1-4.7,4,1.8,4,4.5v.6h-6.6a2.6,2.6,0,0,0,2.7,2.9,2.3,2.3,0,0,0,2.3-1.4Zm-6.4-2.8h4.9a2.4,2.4,0,0,0-2.4-2.6A2.5,2.5,0,0,0,559.3,122.9Z"/><path d="M567.3,119.1h1.5v1.5h0A2.2,2.2,0,0,1,571,119h.6v1.5h-.8c-1.2,0-1.9.9-1.9,2.2v5.7h-1.6Z"/><path d="M582.7,122.1a2.2,2.2,0,0,0-2.4-1.8c-1.5,0-2.6,1.3-2.6,3.4s1.1,3.4,2.7,3.4a2.3,2.3,0,0,0,2.3-1.8h1.5a3.7,3.7,0,0,1-3.9,3.1c-2.5,0-4.2-1.7-4.2-4.7s1.7-4.7,4.2-4.7a3.7,3.7,0,0,1,3.9,3.1Z"/><path d="M585.1,123.7c0-2.9,1.7-4.7,4.3-4.7s4.2,1.8,4.2,4.7-1.7,4.7-4.2,4.7S585.1,126.6,585.1,123.7Zm7,0c0-2.1-1.1-3.4-2.7-3.4s-2.7,1.3-2.7,3.4,1.1,3.4,2.7,3.4S592.1,125.9,592.1,123.7Z"/><path d="M602.7,128.3h-1.5v-1.5h0a3,3,0,0,1-2.9,1.6,3,3,0,0,1-3.2-3.3v-6h1.5v5.7c0,1.5.7,2.3,2.1,2.3a2.3,2.3,0,0,0,2.4-2.6v-5.4h1.6Z"/><path d="M604.7,115.6h1.5v12.7h-1.5Z"/><path d="M607.9,123.7c0-2.9,1.5-4.7,3.8-4.7a3.1,3.1,0,0,1,2.9,1.6h.1v-5h1.5v12.7h-1.5v-1.6h0a3.1,3.1,0,0,1-2.9,1.7C609.4,128.4,607.9,126.6,607.9,123.7Zm1.5,0c0,2.1,1,3.4,2.7,3.4s2.6-1.3,2.6-3.4-1.1-3.4-2.6-3.4S609.4,121.6,609.4,123.7Z"/><path d="M622,115.6h1.6v5h0a3,3,0,0,1,2.9-1.6c2,0,3.2,1.3,3.2,3.4v5.9h-1.5v-5.6c0-1.5-.7-2.4-2.2-2.4a2.4,2.4,0,0,0-2.4,2.7v5.3H622Z"/><path d="M631.3,125.7c0-1.6,1.2-2.6,3.3-2.7h2.6v-.8c0-1.1-.7-1.8-2-1.8a1.9,1.9,0,0,0-2.1,1.5h-1.5c.1-1.6,1.5-2.8,3.7-2.8s3.5,1.1,3.5,3v6.3h-1.5v-1.6h0a3.3,3.3,0,0,1-3,1.7A2.7,2.7,0,0,1,631.3,125.7Zm5.9-.9v-.7h-2.4c-1.2.1-1.9.6-1.9,1.5s.7,1.4,1.8,1.4A2.4,2.4,0,0,0,637.2,124.8Z"/><path d="M644.8,128.3h-1.5l-3.4-9.2h1.6l2.5,7.6h.1l2.5-7.6h1.6Z"/><path d="M656.7,125.7a3.6,3.6,0,0,1-3.8,2.7c-2.6,0-4.2-1.8-4.2-4.7s1.6-4.7,4.1-4.7,4,1.8,4,4.5v.6h-6.5c0,1.8,1,2.9,2.6,2.9a2.3,2.3,0,0,0,2.3-1.4Zm-6.4-2.8h4.9a2.4,2.4,0,0,0-2.4-2.6A2.6,2.6,0,0,0,650.3,122.9Z"/><path d="M665.3,119c1.9,0,3.3,1.1,3.3,2.7h-1.4c-.1-.9-.8-1.5-2-1.5s-1.8.6-1.8,1.4.5,1,1.5,1.3l1.4.3c1.9.5,2.5,1.2,2.5,2.5s-1.5,2.7-3.6,2.7-3.4-1-3.6-2.7h1.6c.1,1,.9,1.5,2.1,1.5s2-.5,2-1.4-.4-1-1.4-1.2l-1.6-.4c-1.6-.5-2.4-1.3-2.4-2.5S663.3,119,665.3,119Z"/><path d="M677.9,128.3h-1.4v-1.5h-.1a2.9,2.9,0,0,1-2.9,1.6c-2,0-3.1-1.3-3.1-3.3v-6h1.5v5.7c0,1.5.7,2.3,2.1,2.3a2.3,2.3,0,0,0,2.4-2.6v-5.4h1.5Z"/><path d="M688.2,123.7c0,2.9-1.5,4.7-3.8,4.7a3.1,3.1,0,0,1-2.9-1.6h-.1v4.5h-1.5V119.1h1.4v1.6h.1a3.2,3.2,0,0,1,2.9-1.7C686.7,119,688.2,120.8,688.2,123.7Zm-1.5,0c0-2.1-1-3.4-2.7-3.4s-2.6,1.4-2.6,3.4,1.1,3.4,2.6,3.4S686.7,125.8,686.7,123.7Z"/><path d="M698.1,123.7c0,2.9-1.5,4.7-3.8,4.7a3.1,3.1,0,0,1-2.9-1.6h-.1v4.5h-1.5V119.1h1.4v1.6h.1a3.2,3.2,0,0,1,2.9-1.7C696.6,119,698.1,120.8,698.1,123.7Zm-1.5,0c0-2.1-1-3.4-2.7-3.4s-2.6,1.4-2.6,3.4,1.1,3.4,2.6,3.4S696.6,125.8,696.6,123.7Z"/><path d="M699.2,123.7c0-2.9,1.7-4.7,4.3-4.7s4.2,1.8,4.2,4.7-1.7,4.7-4.2,4.7S699.2,126.6,699.2,123.7Zm6.9,0c0-2.1-1-3.4-2.6-3.4s-2.7,1.3-2.7,3.4,1,3.4,2.7,3.4S706.1,125.9,706.1,123.7Z"/><path d="M709.2,119.1h1.5v1.5h0a2.2,2.2,0,0,1,2.2-1.6h.6v1.5h-.8c-1.2,0-1.9.9-1.9,2.2v5.7h-1.6Z"/><path d="M716.8,116.9v2.2h1.8v1.3h-1.8v5.4c0,.9.3,1.2,1.1,1.2h.7v1.3h-1c-1.7,0-2.3-.7-2.3-2.5v-5.5h-1.4v-1.3h1.4v-2.2Z"/><path d="M727.5,125.7a3.6,3.6,0,0,1-3.8,2.7c-2.6,0-4.2-1.8-4.2-4.7s1.6-4.7,4.1-4.7,4,1.8,4,4.5v.6h-6.5c0,1.8,1,2.9,2.6,2.9a2.3,2.3,0,0,0,2.3-1.4Zm-6.4-2.8H726a2.4,2.4,0,0,0-2.4-2.6A2.6,2.6,0,0,0,721.1,122.9Z"/><path d="M728.7,123.7c0-2.9,1.6-4.7,3.9-4.7a3.2,3.2,0,0,1,2.9,1.6h0v-5h1.6v12.7h-1.5v-1.6h0a3.3,3.3,0,0,1-3,1.7C730.3,128.4,728.7,126.6,728.7,123.7Zm1.6,0c0,2.1,1,3.4,2.6,3.4s2.6-1.3,2.6-3.4-1-3.4-2.6-3.4S730.3,121.6,730.3,123.7Z"/><path d="M746.1,119c1.9,0,3.2,1.1,3.3,2.7H748a1.9,1.9,0,0,0-2-1.5c-1.1,0-1.8.6-1.8,1.4s.4,1,1.5,1.3l1.4.3c1.8.5,2.5,1.2,2.5,2.5s-1.5,2.7-3.6,2.7-3.4-1-3.6-2.7h1.5c.2,1,.9,1.5,2.2,1.5s2-.5,2-1.4-.4-1-1.4-1.2l-1.6-.4c-1.7-.5-2.4-1.3-2.4-2.5S744.1,119,746.1,119Z"/><path d="M751.2,119.1h1.4v1.5h.1a2.6,2.6,0,0,1,2.6-1.6,2.5,2.5,0,0,1,2.5,1.7h.1a2.9,2.9,0,0,1,2.8-1.7,2.8,2.8,0,0,1,3,3v6.3h-1.5v-6a1.8,1.8,0,0,0-1.9-2,2.1,2.1,0,0,0-2.1,2.2v5.8h-1.5v-6.1a1.8,1.8,0,0,0-1.9-1.9,2.2,2.2,0,0,0-2.1,2.3v5.7h-1.5Z"/><path d="M765.3,125.7c0-1.6,1.2-2.6,3.3-2.7h2.6v-.8c0-1.1-.7-1.8-2-1.8a1.9,1.9,0,0,0-2.1,1.5h-1.5c.1-1.6,1.5-2.8,3.6-2.8s3.5,1.1,3.5,3v6.3h-1.4v-1.6h0a3.4,3.4,0,0,1-3,1.7A2.7,2.7,0,0,1,765.3,125.7Zm5.9-.9v-.7h-2.4c-1.3.1-2,.6-2,1.5s.8,1.4,1.9,1.4A2.4,2.4,0,0,0,771.2,124.8Z"/><path d="M774.8,115.6h1.5v12.7h-1.5Z"/><path d="M778.4,115.6H780v12.7h-1.6Z"/><path d="M785.8,115.6h1.5v12.7h-1.5Z"/><path d="M789.3,116.7a.9.9,0,0,1,.9-1,.9.9,0,0,1,1,1,.9.9,0,0,1-1,.9A.9.9,0,0,1,789.3,116.7Zm.2,2.4H791v9.2h-1.5Z"/><path d="M793.6,120.4h-1.3v-1.3h1.3v-1c0-1.7.8-2.6,2.5-2.6h.9v1.2h-.7c-.8,0-1.2.4-1.2,1.3v1H797v1.3h-1.9v7.9h-1.5Z"/><path d="M805.7,125.7a3.6,3.6,0,0,1-3.8,2.7c-2.7,0-4.3-1.8-4.3-4.7s1.7-4.7,4.2-4.7,4,1.8,4,4.5v.6h-6.6a2.6,2.6,0,0,0,2.7,2.9,2.3,2.3,0,0,0,2.3-1.4Zm-6.5-2.8h5a2.4,2.4,0,0,0-2.4-2.6A2.6,2.6,0,0,0,799.2,122.9Z"/><path d="M811.5,120.4h-1.3v-1.3h1.3v-1c0-1.7.8-2.6,2.5-2.6h.9v1.2h-.7c-.8,0-1.2.4-1.2,1.3v1h1.9v1.3H813v7.9h-1.5Z"/><path d="M815.6,123.7c0-2.9,1.7-4.7,4.2-4.7s4.2,1.8,4.2,4.7-1.7,4.7-4.2,4.7S815.6,126.6,815.6,123.7Zm6.9,0c0-2.1-1.1-3.4-2.7-3.4s-2.7,1.3-2.7,3.4,1.1,3.4,2.7,3.4S822.5,125.9,822.5,123.7Z"/><path d="M825.6,119.1H827v1.5h.1a2.2,2.2,0,0,1,2.2-1.6h.6v1.5h-.8a2,2,0,0,0-2,2.2v5.7h-1.5Z"/><path d="M831.1,119.1h1.5v1.5h0a2.7,2.7,0,0,1,2.6-1.6,2.5,2.5,0,0,1,2.6,1.7h0a3,3,0,0,1,2.9-1.7,2.8,2.8,0,0,1,2.9,3v6.3h-1.5v-6a1.8,1.8,0,0,0-1.9-2,2,2,0,0,0-2,2.2v5.8h-1.6v-6.1a1.8,1.8,0,0,0-1.8-1.9,2.1,2.1,0,0,0-2.1,2.3v5.7h-1.6Z"/><path d="M848.8,119c1.9,0,3.3,1.1,3.4,2.7h-1.5a1.7,1.7,0,0,0-1.9-1.5c-1.1,0-1.9.6-1.9,1.4s.5,1,1.6,1.3l1.4.3c1.8.5,2.5,1.2,2.5,2.5s-1.5,2.7-3.7,2.7-3.4-1-3.5-2.7h1.5a1.8,1.8,0,0,0,2.1,1.5c1.3,0,2-.5,2-1.4s-.3-1-1.4-1.2l-1.6-.4c-1.6-.5-2.4-1.3-2.4-2.5S846.8,119,848.8,119Z"/><path d="M863.8,122.1a2.3,2.3,0,0,0-2.4-1.8c-1.6,0-2.6,1.3-2.6,3.4s1.1,3.4,2.6,3.4a2.3,2.3,0,0,0,2.4-1.8h1.5a3.7,3.7,0,0,1-3.9,3.1c-2.5,0-4.2-1.7-4.2-4.7s1.7-4.7,4.2-4.7a3.7,3.7,0,0,1,3.9,3.1Z"/><path d="M866.3,125.7c0-1.6,1.2-2.6,3.3-2.7h2.6v-.8c0-1.1-.7-1.8-2-1.8a2,2,0,0,0-2.1,1.5h-1.5c.2-1.6,1.5-2.8,3.7-2.8s3.5,1.1,3.5,3v6.3h-1.5v-1.6h0a3.3,3.3,0,0,1-3,1.7A2.7,2.7,0,0,1,866.3,125.7Zm5.9-.9v-.7h-2.4c-1.2.1-1.9.6-1.9,1.5s.7,1.4,1.8,1.4A2.4,2.4,0,0,0,872.2,124.8Z"/><path d="M875.8,115.6h1.5v12.7h-1.5Z"/><path d="M879.5,115.6H881v12.7h-1.5Z"/><path d="M890.6,125.7c-.2,1.6-1.8,2.7-3.8,2.7s-4.2-1.8-4.2-4.7,1.6-4.7,4.2-4.7,3.9,1.8,3.9,4.5v.6h-6.5a2.6,2.6,0,0,0,2.7,2.9,2.2,2.2,0,0,0,2.2-1.4Zm-6.4-2.8h5a2.5,2.5,0,0,0-2.5-2.6A2.6,2.6,0,0,0,884.2,122.9Z"/><path d="M891.8,123.7c0-2.9,1.6-4.7,3.9-4.7a3.1,3.1,0,0,1,2.9,1.6h.1v-5h1.5v12.7h-1.5v-1.6h0a3.2,3.2,0,0,1-3,1.7C893.4,128.4,891.8,126.6,891.8,123.7Zm1.6,0c0,2.1,1,3.4,2.6,3.4s2.7-1.3,2.7-3.4-1.1-3.4-2.7-3.4S893.4,121.6,893.4,123.7Z"/><path d="M905.9,119.1h1.5v1.5h0A2.7,2.7,0,0,1,910,119a2.5,2.5,0,0,1,2.6,1.7h0a3,3,0,0,1,2.9-1.7,2.8,2.8,0,0,1,3,3v6.3h-1.6v-6a1.8,1.8,0,0,0-1.9-2,2,2,0,0,0-2,2.2v5.8h-1.6v-6.1a1.8,1.8,0,0,0-1.8-1.9,2.1,2.1,0,0,0-2.1,2.3v5.7h-1.6Z"/><path d="M920.3,116.7a.9.9,0,0,1,.9-1,.9.9,0,0,1,1,1,.9.9,0,0,1-1,.9A.9.9,0,0,1,920.3,116.7Zm.2,2.4H922v9.2h-1.5Z"/><path d="M930.2,122.1a2.3,2.3,0,0,0-2.4-1.8c-1.6,0-2.6,1.3-2.6,3.4s1.1,3.4,2.6,3.4a2.3,2.3,0,0,0,2.4-1.8h1.5a3.7,3.7,0,0,1-3.9,3.1c-2.5,0-4.2-1.7-4.2-4.7s1.7-4.7,4.2-4.7a3.7,3.7,0,0,1,3.9,3.1Z"/><path d="M933.1,119.1h1.4v1.5h.1a2.2,2.2,0,0,1,2.2-1.6h.6v1.5h-.8a2,2,0,0,0-2,2.2v5.7h-1.5Z"/><path d="M937.7,123.7c0-2.9,1.7-4.7,4.3-4.7s4.2,1.8,4.2,4.7-1.7,4.7-4.2,4.7S937.7,126.6,937.7,123.7Zm7,0c0-2.1-1.1-3.4-2.7-3.4s-2.7,1.3-2.7,3.4,1.1,3.4,2.7,3.4S944.7,125.9,944.7,123.7Z"/><path d="M949.3,126.7h0v1.6h-1.5V115.6h1.6v5.1h0a3.1,3.1,0,0,1,2.9-1.7c2.3,0,3.9,1.8,3.9,4.7s-1.6,4.7-3.9,4.7A3.3,3.3,0,0,1,949.3,126.7Zm0-3c0,2.1,1.1,3.4,2.7,3.4s2.6-1.3,2.6-3.4-1-3.4-2.6-3.4S949.3,121.7,949.3,123.7Z"/><path d="M965.3,125.7a3.6,3.6,0,0,1-3.8,2.7c-2.6,0-4.2-1.8-4.2-4.7s1.6-4.7,4.1-4.7,4,1.8,4,4.5v.6h-6.6a2.6,2.6,0,0,0,2.7,2.9,2.3,2.3,0,0,0,2.3-1.4Zm-6.4-2.8h4.9a2.4,2.4,0,0,0-2.4-2.6A2.6,2.6,0,0,0,958.9,122.9Z"/><path d="M970.2,119c1.9,0,3.3,1.1,3.3,2.7h-1.4c-.1-.9-.8-1.5-2-1.5s-1.8.6-1.8,1.4.5,1,1.5,1.3l1.4.3c1.9.5,2.5,1.2,2.5,2.5s-1.5,2.7-3.6,2.7-3.4-1-3.6-2.7h1.6c.1,1,.9,1.5,2.1,1.5s2-.5,2-1.4-.4-1-1.4-1.2l-1.6-.4c-1.6-.5-2.4-1.3-2.4-2.5S968.2,119,970.2,119Z"/><path d="M975.6,127.4a1,1,0,1,1,2,0,1,1,0,0,1-2,0Z"/><path d="M980.2,127.4a.9.9,0,0,1,1-1,1,1,0,0,1,1,1,1.1,1.1,0,0,1-1,1A1,1,0,0,1,980.2,127.4Z"/><path d="M984.7,127.4a1,1,0,0,1,1.1-1,1,1,0,0,1,1,1,1.1,1.1,0,0,1-1,1A1.1,1.1,0,0,1,984.7,127.4Z"/><path d="M988.7,125.7c0-1.6,1.2-2.6,3.3-2.7h2.6v-.8c0-1.1-.7-1.8-2-1.8a1.9,1.9,0,0,0-2.1,1.5H989c.1-1.6,1.5-2.8,3.6-2.8s3.5,1.1,3.5,3v6.3h-1.4v-1.6h-.1a3.1,3.1,0,0,1-2.9,1.7A2.7,2.7,0,0,1,988.7,125.7Zm5.9-.9v-.7h-2.5c-1.2.1-1.9.6-1.9,1.5s.7,1.4,1.8,1.4A2.4,2.4,0,0,0,994.6,124.8Z"/><path d="M998.1,119.1h1.4v1.5h0a3.3,3.3,0,0,1,6.1,1.7v6h-1.5v-5.7c0-1.5-.7-2.3-2.1-2.3a2.4,2.4,0,0,0-2.4,2.6v5.4h-1.5Z"/><path d="M1007.1,123.7c0-2.9,1.6-4.7,3.9-4.7a3.2,3.2,0,0,1,2.9,1.6h0v-5h1.5v12.7H1014v-1.6h0a3.3,3.3,0,0,1-3,1.7C1008.7,128.4,1007.1,126.6,1007.1,123.7Zm1.6,0c0,2.1,1,3.4,2.6,3.4s2.6-1.3,2.6-3.4-1-3.4-2.6-3.4S1008.7,121.6,1008.7,123.7Z"/><path d="M1021.1,116.7a.9.9,0,0,1,.9-1,.9.9,0,0,1,1,1,.9.9,0,0,1-1,.9A.9.9,0,0,1,1021.1,116.7Zm.2,2.4h1.5v9.2h-1.5Z"/><path d="M1025.4,120.4h-1.3v-1.3h1.3v-1c0-1.7.8-2.6,2.5-2.6h.9v1.2h-.7c-.8,0-1.2.4-1.2,1.3v1h1.9v1.3h-1.9v7.9h-1.5Z"/><path d="M1034.1,115.6h1.5v5h.1a3,3,0,0,1,2.9-1.6c2,0,3.2,1.3,3.2,3.4v5.9h-1.5v-5.6a2.1,2.1,0,0,0-2.2-2.4,2.5,2.5,0,0,0-2.5,2.7v5.3h-1.5Z"/><path d="M1051.2,128.3h-1.4v-1.5h0a3,3,0,0,1-2.9,1.6,3,3,0,0,1-3.2-3.3v-6h1.5v5.7c0,1.5.7,2.3,2.1,2.3a2.3,2.3,0,0,0,2.4-2.6v-5.4h1.5Z"/><path d="M1053.2,119.1h1.5v1.5h0a2.7,2.7,0,0,1,2.6-1.6,2.6,2.6,0,0,1,2.6,1.7h0a3,3,0,0,1,2.9-1.7,2.8,2.8,0,0,1,2.9,3v6.3h-1.5v-6a1.8,1.8,0,0,0-1.9-2,2.1,2.1,0,0,0-2.1,2.2v5.8h-1.5v-6.1a1.8,1.8,0,0,0-1.9-1.9,2.1,2.1,0,0,0-2,2.3v5.7h-1.6Z"/><path d="M1067.3,125.7c0-1.6,1.2-2.6,3.3-2.7h2.6v-.8c0-1.1-.7-1.8-2-1.8a2,2,0,0,0-2.1,1.5h-1.4c.1-1.6,1.4-2.8,3.6-2.8s3.5,1.1,3.5,3v6.3h-1.5v-1.6h0a3.2,3.2,0,0,1-2.9,1.7C1068.5,128.4,1067.3,127.3,1067.3,125.7Zm5.9-.9v-.7h-2.4c-1.2.1-1.9.6-1.9,1.5s.7,1.4,1.8,1.4A2.4,2.4,0,0,0,1073.2,124.8Z"/><path d="M1076.7,119.1h1.5v1.5h0a3.3,3.3,0,0,1,6.1,1.7v6h-1.6v-5.7c0-1.5-.7-2.3-2.1-2.3a2.4,2.4,0,0,0-2.4,2.6v5.4h-1.5Z"/><path d="M1089.5,119a3,3,0,0,1,3.3,2.7h-1.5a1.7,1.7,0,0,0-1.9-1.5c-1.1,0-1.9.6-1.9,1.4s.5,1,1.6,1.3l1.4.3c1.8.5,2.5,1.2,2.5,2.5s-1.5,2.7-3.6,2.7-3.4-1-3.6-2.7h1.5c.2,1,.9,1.5,2.2,1.5s2-.5,2-1.4-.4-1-1.5-1.2l-1.6-.4c-1.6-.5-2.4-1.3-2.4-2.5S1087.4,119,1089.5,119Z"/><path d="M1104.4,122.1a2.3,2.3,0,0,0-2.4-1.8c-1.6,0-2.6,1.3-2.6,3.4s1.1,3.4,2.6,3.4a2.3,2.3,0,0,0,2.4-1.8h1.5a3.7,3.7,0,0,1-3.9,3.1c-2.5,0-4.2-1.7-4.2-4.7s1.7-4.7,4.2-4.7a3.7,3.7,0,0,1,3.9,3.1Z"/><path d="M1106.8,123.7c0-2.9,1.7-4.7,4.3-4.7s4.2,1.8,4.2,4.7-1.7,4.7-4.2,4.7S1106.8,126.6,1106.8,123.7Zm6.9,0c0-2.1-1-3.4-2.6-3.4s-2.7,1.3-2.7,3.4,1.1,3.4,2.7,3.4S1113.7,125.9,1113.7,123.7Z"/><path d="M1124.3,128.3h-1.4v-1.5h0a3,3,0,0,1-2.9,1.6,3,3,0,0,1-3.2-3.3v-6h1.5v5.7c0,1.5.7,2.3,2.1,2.3a2.3,2.3,0,0,0,2.4-2.6v-5.4h1.5Z"/><path d="M1126.4,115.6h1.5v12.7h-1.5Z"/><path d="M1129.5,123.7c0-2.9,1.6-4.7,3.9-4.7a3.1,3.1,0,0,1,2.9,1.6h.1v-5h1.5v12.7h-1.5v-1.6h0a3.1,3.1,0,0,1-2.9,1.7C1131.1,128.4,1129.5,126.6,1129.5,123.7Zm1.6,0c0,2.1,1,3.4,2.6,3.4s2.7-1.3,2.7-3.4-1.1-3.4-2.7-3.4S1131.1,121.6,1131.1,123.7Z"/><path d="M353.2,140.6c1.9,0,3.3,1.1,3.4,2.7h-1.5a1.7,1.7,0,0,0-1.9-1.5c-1.1,0-1.9.6-1.9,1.4s.5,1,1.6,1.3l1.4.3c1.8.5,2.5,1.2,2.5,2.5s-1.5,2.7-3.7,2.7-3.4-1-3.5-2.7h1.5a1.8,1.8,0,0,0,2.1,1.5c1.3,0,2-.5,2-1.4s-.3-1-1.4-1.2l-1.6-.4c-1.6-.5-2.4-1.3-2.4-2.5S351.2,140.6,353.2,140.6Z"/><path d="M365.9,149.9h-1.5v-1.5h0a3,3,0,0,1-2.9,1.6,3,3,0,0,1-3.2-3.3v-6h1.6v5.7c0,1.5.6,2.3,2.1,2.3a2.3,2.3,0,0,0,2.3-2.6v-5.4h1.6Z"/><path d="M367.9,140.7h1.4v1.5h0a2.2,2.2,0,0,1,2.2-1.6h.7v1.5h-.9a2,2,0,0,0-1.9,2.2v5.7h-1.5Z"/><path d="M377.5,149.9H376l-3.4-9.2h1.6l2.5,7.6h.1l2.5-7.6h1.6Z"/><path d="M382,138.3a.9.9,0,0,1,.9-1,.9.9,0,0,1,1,1,.9.9,0,0,1-1,.9A.9.9,0,0,1,382,138.3Zm.2,2.4h1.5v9.2h-1.5Z"/><path d="M389.9,149.9h-1.6l-3.3-9.2h1.6l2.5,7.6h0l2.6-7.6h1.6Z"/><path d="M401.8,147.3A3.6,3.6,0,0,1,398,150c-2.7,0-4.3-1.8-4.3-4.7s1.7-4.7,4.2-4.7,4,1.8,4,4.5v.6h-6.6a2.6,2.6,0,0,0,2.7,2.9,2.3,2.3,0,0,0,2.3-1.4Zm-6.5-2.8h5a2.4,2.4,0,0,0-2.4-2.6A2.6,2.6,0,0,0,395.3,144.5Z"/><path d="M409.1,138.5v2.2h1.8V142h-1.8v5.4c0,.9.4,1.2,1.2,1.2h.6v1.3h-1c-1.7,0-2.3-.7-2.3-2.5V142h-1.4v-1.3h1.4v-2.2Z"/><path d="M412.6,137.2h1.5v5h.1a3,3,0,0,1,2.9-1.6c2,0,3.2,1.3,3.2,3.4v5.9h-1.5v-5.6a2.1,2.1,0,0,0-2.2-2.4,2.5,2.5,0,0,0-2.5,2.7v5.3h-1.5Z"/><path d="M429.8,147.3A3.6,3.6,0,0,1,426,150c-2.6,0-4.2-1.8-4.2-4.7s1.6-4.7,4.1-4.7,4,1.8,4,4.5v.6h-6.5c0,1.8,1,2.9,2.6,2.9a2.3,2.3,0,0,0,2.3-1.4Zm-6.4-2.8h4.9a2.4,2.4,0,0,0-2.4-2.6A2.6,2.6,0,0,0,423.4,144.5Z"/><path d="M431.5,140.7h1.4v1.5h0a2.2,2.2,0,0,1,2.2-1.6h.7v1.5h-.9a2,2,0,0,0-1.9,2.2v5.7h-1.5Z"/><path d="M444.1,147.3c-.2,1.6-1.8,2.7-3.8,2.7s-4.2-1.8-4.2-4.7,1.6-4.7,4.1-4.7,4,1.8,4,4.5v.6h-6.5a2.6,2.6,0,0,0,2.7,2.9,2.2,2.2,0,0,0,2.2-1.4Zm-6.4-2.8h5a2.5,2.5,0,0,0-2.5-2.6A2.6,2.6,0,0,0,437.7,144.5Z"/><path d="M452.7,140.6c1.9,0,3.3,1.1,3.4,2.7h-1.5a1.7,1.7,0,0,0-1.9-1.5c-1.1,0-1.9.6-1.9,1.4s.5,1,1.5,1.3l1.4.3c1.9.5,2.6,1.2,2.6,2.5s-1.5,2.7-3.7,2.7-3.4-1-3.5-2.7h1.5a1.8,1.8,0,0,0,2.1,1.5c1.3,0,2-.5,2-1.4s-.4-1-1.4-1.2l-1.6-.4c-1.6-.5-2.4-1.3-2.4-2.5S450.7,140.6,452.7,140.6Z"/><path d="M457.4,145.3c0-2.9,1.7-4.7,4.2-4.7s4.3,1.8,4.3,4.7-1.7,4.7-4.3,4.7S457.4,148.2,457.4,145.3Zm6.9,0c0-2.1-1.1-3.4-2.7-3.4s-2.6,1.3-2.6,3.4,1,3.4,2.6,3.4S464.3,147.5,464.3,145.3Z"/><path d="M467.4,140.7h1.4v1.5h.1a2.6,2.6,0,0,1,2.6-1.6,2.5,2.5,0,0,1,2.5,1.7h.1a3,3,0,0,1,2.8-1.7,2.8,2.8,0,0,1,3,3v6.3h-1.5v-6a1.8,1.8,0,0,0-1.9-2,2.1,2.1,0,0,0-2.1,2.2v5.8h-1.5v-6.1a1.8,1.8,0,0,0-1.9-1.9,2.2,2.2,0,0,0-2.1,2.3v5.7h-1.5Z"/><path d="M489.4,147.3c-.2,1.6-1.8,2.7-3.8,2.7s-4.2-1.8-4.2-4.7,1.6-4.7,4.1-4.7,4,1.8,4,4.5v.6H483a2.6,2.6,0,0,0,2.7,2.9,2.2,2.2,0,0,0,2.2-1.4Zm-6.4-2.8h5a2.5,2.5,0,0,0-2.5-2.6A2.6,2.6,0,0,0,483,144.5Z"/><path d="M490.6,145.3c0-2.9,1.6-4.7,3.9-4.7a3.1,3.1,0,0,1,2.9,1.6h0v-5H499v12.7h-1.5v-1.6h0a3.2,3.2,0,0,1-3,1.7C492.2,150,490.6,148.2,490.6,145.3Zm1.6,0c0,2.1,1,3.4,2.6,3.4s2.7-1.3,2.7-3.4-1.1-3.4-2.7-3.4S492.2,143.2,492.2,145.3Z"/><path d="M500.7,147.3c0-1.6,1.2-2.5,3.3-2.7h2.6v-.8c0-1.1-.7-1.8-2-1.8a1.9,1.9,0,0,0-2.1,1.5H501c.1-1.6,1.5-2.8,3.6-2.8s3.5,1.1,3.5,3v6.3h-1.4v-1.6h-.1a3.1,3.1,0,0,1-2.9,1.7A2.7,2.7,0,0,1,500.7,147.3Zm5.9-.9v-.7h-2.4c-1.3.1-2,.6-2,1.5s.8,1.4,1.9,1.4A2.4,2.4,0,0,0,506.6,146.4Z"/><path d="M510.2,153.2V152h.6c.8,0,1.3-.4,1.7-1.5l.2-.6-3.4-9.2h1.6l2.6,7.7h0l2.5-7.7h1.6l-3.6,9.8c-.8,2.2-1.5,2.8-3.2,2.8Z"/><path d="M519.2,149a1,1,0,0,1,1-1,.9.9,0,0,1,1,1,1,1,0,0,1-1,1A1.1,1.1,0,0,1,519.2,149Zm1.8-11.8v8.5h-1.4v-8.5Z"/><path d="M350.2,171.5V158.8h1.6v12.7Z"/><path d="M354,162.3h1.5v1.5h0a3.3,3.3,0,0,1,6.1,1.7v6H360v-5.7c0-1.5-.6-2.3-2.1-2.3a2.3,2.3,0,0,0-2.3,2.6v5.4H354Z"/><path d="M366.8,168.9c0-1.6,1.2-2.6,3.4-2.7h2.6v-.8a1.8,1.8,0,0,0-2-1.8,1.9,1.9,0,0,0-2.1,1.5h-1.5c.1-1.6,1.4-2.8,3.6-2.8s3.5,1.1,3.5,3v6.3h-1.4v-1.6h-.1a3.1,3.1,0,0,1-2.9,1.7A2.8,2.8,0,0,1,366.8,168.9Zm6-.9v-.7h-2.5c-1.2.1-1.9.6-1.9,1.5s.7,1.4,1.8,1.4A2.4,2.4,0,0,0,372.8,168Z"/><path d="M375.8,166.9c0-2.9,1.6-4.7,3.9-4.7a3.2,3.2,0,0,1,2.9,1.6h0v-5h1.5v12.7h-1.4v-1.6h0a3.3,3.3,0,0,1-3,1.7C377.4,171.6,375.8,169.8,375.8,166.9Zm1.6,0c0,2.1,1,3.4,2.6,3.4s2.6-1.3,2.6-3.4-1-3.4-2.6-3.4S377.4,164.8,377.4,166.9Z"/><path d="M385.8,166.9c0-2.9,1.5-4.7,3.8-4.7a3,3,0,0,1,2.9,1.6h.1v-5h1.5v12.7h-1.4v-1.6h-.1a3.1,3.1,0,0,1-2.9,1.7C387.3,171.6,385.8,169.8,385.8,166.9Zm1.5,0c0,2.1,1,3.4,2.7,3.4s2.6-1.3,2.6-3.4-1.1-3.4-2.6-3.4S387.3,164.8,387.3,166.9Z"/><path d="M396.1,159.9a.9.9,0,0,1,.9-1,.9.9,0,0,1,1,1,.9.9,0,0,1-1,.9A.9.9,0,0,1,396.1,159.9Zm.2,2.4h1.5v9.2h-1.5Z"/><path d="M401.9,160.1v2.2h1.8v1.3h-1.8V169c0,.9.3,1.2,1.1,1.2h.6v1.3h-.9c-1.7,0-2.4-.7-2.4-2.5v-5.5H399v-1.3h1.3v-2.2Z"/><path d="M405.2,159.9a.9.9,0,0,1,.9-1,1,1,0,0,1,1,1,1,1,0,0,1-1,.9A.9.9,0,0,1,405.2,159.9Zm.2,2.4h1.5v9.2h-1.5Z"/><path d="M408.5,166.9c0-2.9,1.7-4.7,4.2-4.7s4.3,1.8,4.3,4.7-1.7,4.7-4.3,4.7S408.5,169.8,408.5,166.9Zm6.9,0c0-2.1-1-3.4-2.7-3.4s-2.6,1.3-2.6,3.4,1,3.4,2.6,3.4S415.4,169.1,415.4,166.9Z"/><path d="M418.5,162.3h1.4v1.5h.1a3,3,0,0,1,2.9-1.6c2,0,3.1,1.3,3.1,3.3v6h-1.5v-5.7c0-1.5-.7-2.3-2.1-2.3a2.4,2.4,0,0,0-2.4,2.6v5.4h-1.5Z"/><path d="M433.7,160.1v2.2h1.8v1.3h-1.8V169c0,.9.4,1.2,1.1,1.2h.7v1.3h-1c-1.7,0-2.3-.7-2.3-2.5v-5.5h-1.4v-1.3h1.4v-2.2Z"/><path d="M436.4,166.9c0-2.9,1.7-4.7,4.2-4.7s4.3,1.8,4.3,4.7-1.8,4.7-4.3,4.7S436.4,169.8,436.4,166.9Zm6.9,0c0-2.1-1.1-3.4-2.7-3.4s-2.7,1.3-2.7,3.4,1.1,3.4,2.7,3.4S443.3,169.1,443.3,166.9Z"/><path d="M453.3,162.2c1.9,0,3.3,1.1,3.4,2.7h-1.5a1.7,1.7,0,0,0-1.9-1.5c-1.1,0-1.9.6-1.9,1.4s.5,1,1.5,1.3l1.5.3c1.8.5,2.5,1.2,2.5,2.5s-1.5,2.7-3.7,2.7-3.4-1-3.5-2.7h1.5a1.8,1.8,0,0,0,2.1,1.5c1.3,0,2-.5,2-1.4s-.3-1-1.4-1.2l-1.6-.4c-1.6-.5-2.4-1.3-2.4-2.5S451.3,162.2,453.3,162.2Z"/><path d="M466,171.5h-1.5V170h0a3,3,0,0,1-2.9,1.6,3,3,0,0,1-3.2-3.3v-6h1.5V168c0,1.5.7,2.3,2.2,2.3a2.3,2.3,0,0,0,2.3-2.6v-5.4H466Z"/><path d="M476.3,166.9c0,2.9-1.6,4.7-3.9,4.7a3.2,3.2,0,0,1-2.9-1.6h0v4.5h-1.6V162.3h1.5v1.6h0a3.5,3.5,0,0,1,3-1.7C474.7,162.2,476.3,164,476.3,166.9Zm-1.6,0c0-2.1-1-3.4-2.6-3.4s-2.6,1.4-2.6,3.4,1,3.4,2.6,3.4S474.7,169,474.7,166.9Z"/><path d="M485.4,168.9a3.6,3.6,0,0,1-3.8,2.7c-2.6,0-4.2-1.8-4.2-4.7s1.6-4.7,4.1-4.7,4,1.8,4,4.5v.6H479c0,1.8,1,2.9,2.6,2.9a2.3,2.3,0,0,0,2.3-1.4Zm-6.4-2.8h4.9a2.4,2.4,0,0,0-2.4-2.6A2.6,2.6,0,0,0,479,166.1Z"/><path d="M487,162.3h1.5v1.5h0a2.2,2.2,0,0,1,2.2-1.6h.7v1.5h-.9a2,2,0,0,0-1.9,2.2v5.7H487Z"/><path d="M492.2,167.1v-1.5H498v1.5Z"/><path d="M500,158.8h1.6v5h0a3,3,0,0,1,2.9-1.6c2,0,3.2,1.3,3.2,3.4v5.9h-1.5v-5.6c0-1.5-.7-2.4-2.2-2.4a2.4,2.4,0,0,0-2.4,2.7v5.3H500Z"/><path d="M517.2,171.5h-1.5V170h0a3,3,0,0,1-2.9,1.6,3,3,0,0,1-3.2-3.3v-6h1.5V168c0,1.5.7,2.3,2.2,2.3a2.3,2.3,0,0,0,2.3-2.6v-5.4h1.6Z"/><path d="M519.1,162.3h1.5v1.5h0a2.8,2.8,0,0,1,2.6-1.6,2.5,2.5,0,0,1,2.6,1.7h0a3,3,0,0,1,2.9-1.7,2.8,2.8,0,0,1,3,3v6.3h-1.6v-6a1.8,1.8,0,0,0-1.9-2,2,2,0,0,0-2,2.2v5.8h-1.6v-6.1a1.8,1.8,0,0,0-1.8-1.9,2.2,2.2,0,0,0-2.1,2.3v5.7h-1.6Z"/><path d="M533.2,168.9c0-1.6,1.2-2.6,3.3-2.7h2.7v-.8a1.8,1.8,0,0,0-2-1.8c-1.2,0-2,.6-2.1,1.5h-1.5c.1-1.6,1.4-2.8,3.6-2.8s3.5,1.1,3.5,3v6.3h-1.5v-1.6h0a3.1,3.1,0,0,1-2.9,1.7A2.8,2.8,0,0,1,533.2,168.9Zm6-.9v-.7h-2.5c-1.2.1-1.9.6-1.9,1.5s.7,1.4,1.8,1.4A2.4,2.4,0,0,0,539.2,168Z"/><path d="M542.6,162.3h1.5v1.5h0a3.3,3.3,0,0,1,6.1,1.7v6h-1.5v-5.7c0-1.5-.7-2.3-2.1-2.3a2.4,2.4,0,0,0-2.4,2.6v5.4h-1.6Z"/><path d="M559.1,162.2c1.9,0,3.2,1.1,3.3,2.7H561a1.8,1.8,0,0,0-2-1.5c-1.1,0-1.8.6-1.8,1.4s.4,1,1.5,1.3l1.4.3c1.8.5,2.5,1.2,2.5,2.5s-1.5,2.7-3.6,2.7-3.4-1-3.6-2.7h1.5c.2,1,.9,1.5,2.2,1.5s2-.5,2-1.4-.4-1-1.4-1.2l-1.6-.4c-1.7-.5-2.4-1.3-2.4-2.5S557.1,162.2,559.1,162.2Z"/><path d="M571.8,168.9a3.7,3.7,0,0,1-3.8,2.7c-2.7,0-4.3-1.8-4.3-4.7s1.7-4.7,4.2-4.7,4,1.8,4,4.5v.6h-6.6a2.6,2.6,0,0,0,2.7,2.9,2.4,2.4,0,0,0,2.3-1.4Zm-6.5-2.8h5a2.4,2.4,0,0,0-2.4-2.6A2.6,2.6,0,0,0,565.3,166.1Z"/><path d="M573.4,162.3h1.5v1.5h0a3.3,3.3,0,0,1,6.1,1.7v6h-1.6v-5.7c0-1.5-.7-2.3-2.1-2.3a2.4,2.4,0,0,0-2.4,2.6v5.4h-1.5Z"/><path d="M586.1,162.2c1.9,0,3.3,1.1,3.4,2.7H588a1.7,1.7,0,0,0-1.9-1.5c-1.1,0-1.9.6-1.9,1.4s.5,1,1.6,1.3l1.4.3c1.8.5,2.5,1.2,2.5,2.5s-1.5,2.7-3.7,2.7-3.4-1-3.5-2.7H584a1.8,1.8,0,0,0,2.1,1.5c1.3,0,2.1-.5,2.1-1.4s-.4-1-1.5-1.2l-1.6-.4c-1.6-.5-2.4-1.3-2.4-2.5S584.1,162.2,586.1,162.2Z"/><path d="M598.8,168.9c-.2,1.6-1.8,2.7-3.8,2.7s-4.2-1.8-4.2-4.7,1.6-4.7,4.2-4.7,4,1.8,4,4.5v.6h-6.6a2.6,2.6,0,0,0,2.7,2.9,2.2,2.2,0,0,0,2.2-1.4Zm-6.4-2.8h5a2.5,2.5,0,0,0-2.5-2.6A2.6,2.6,0,0,0,592.4,166.1Z"/><path d="M603.7,162.2c1.9,0,3.3,1.1,3.4,2.7h-1.5a1.7,1.7,0,0,0-1.9-1.5c-1.1,0-1.9.6-1.9,1.4s.5,1,1.6,1.3l1.4.3c1.8.5,2.5,1.2,2.5,2.5s-1.5,2.7-3.7,2.7-3.4-1-3.5-2.7h1.5a1.8,1.8,0,0,0,2.1,1.5c1.3,0,2-.5,2-1.4s-.3-1-1.4-1.2l-1.6-.4c-1.6-.5-2.4-1.3-2.4-2.5S601.7,162.2,603.7,162.2Z"/><path d="M614.6,160.1v2.2h1.8v1.3h-1.8V169c0,.9.3,1.2,1.1,1.2h.6v1.3h-.9c-1.7,0-2.4-.7-2.4-2.5v-5.5h-1.3v-1.3H613v-2.2Z"/><path d="M618.1,158.8h1.5v5h0a3,3,0,0,1,2.9-1.6c2,0,3.2,1.3,3.2,3.4v5.9h-1.5v-5.6c0-1.5-.7-2.4-2.2-2.4a2.4,2.4,0,0,0-2.4,2.7v5.3h-1.5Z"/><path d="M627.3,168.9c0-1.6,1.2-2.6,3.3-2.7h2.6v-.8c0-1.1-.7-1.8-2-1.8a2,2,0,0,0-2.1,1.5h-1.4c.1-1.6,1.4-2.8,3.6-2.8s3.5,1.1,3.5,3v6.3h-1.5v-1.6h0a3.2,3.2,0,0,1-2.9,1.7C628.5,171.6,627.3,170.5,627.3,168.9Zm5.9-.9v-.7h-2.4c-1.2.1-1.9.6-1.9,1.5s.7,1.4,1.8,1.4A2.4,2.4,0,0,0,633.2,168Z"/><path d="M638.7,160.1v2.2h1.8v1.3h-1.8V169c0,.9.4,1.2,1.2,1.2h.6v1.3h-1c-1.6,0-2.3-.7-2.3-2.5v-5.5h-1.4v-1.3h1.4v-2.2Z"/><path d="M645.9,158.8h1.5v5h.1a3,3,0,0,1,2.9-1.6c2,0,3.2,1.3,3.2,3.4v5.9h-1.5v-5.6a2.1,2.1,0,0,0-2.2-2.4,2.5,2.5,0,0,0-2.5,2.7v5.3h-1.5Z"/><path d="M663.1,168.9a3.6,3.6,0,0,1-3.8,2.7c-2.6,0-4.2-1.8-4.2-4.7s1.6-4.7,4.1-4.7,4,1.8,4,4.5v.6h-6.5c0,1.8,1,2.9,2.6,2.9a2.3,2.3,0,0,0,2.3-1.4Zm-6.4-2.8h4.9a2.4,2.4,0,0,0-2.4-2.6A2.6,2.6,0,0,0,656.7,166.1Z"/><path d="M664.8,158.8h1.6v12.7h-1.6Z"/><path d="M676.8,166.9c0,2.9-1.6,4.7-3.9,4.7A3.1,3.1,0,0,1,670,170h0v4.5h-1.6V162.3h1.5v1.6h0a3.4,3.4,0,0,1,3-1.7C675.2,162.2,676.8,164,676.8,166.9Zm-1.6,0c0-2.1-1-3.4-2.6-3.4s-2.6,1.4-2.6,3.4,1,3.4,2.6,3.4S675.2,169,675.2,166.9Z"/><path d="M689.5,171.5h-1.4V170H688a2.9,2.9,0,0,1-2.9,1.6c-2,0-3.1-1.3-3.1-3.3v-6h1.5V168c0,1.5.7,2.3,2.1,2.3a2.3,2.3,0,0,0,2.4-2.6v-5.4h1.5Z"/><path d="M694.7,162.2c1.9,0,3.3,1.1,3.4,2.7h-1.5a1.7,1.7,0,0,0-1.9-1.5c-1.1,0-1.9.6-1.9,1.4s.5,1,1.6,1.3l1.4.3c1.8.5,2.5,1.2,2.5,2.5s-1.5,2.7-3.7,2.7-3.4-1-3.5-2.7h1.5a1.8,1.8,0,0,0,2.1,1.5c1.3,0,2-.5,2-1.4s-.3-1-1.4-1.2l-1.6-.4c-1.6-.5-2.4-1.3-2.4-2.5S692.7,162.2,694.7,162.2Z"/><path d="M711.1,171.5h-1.5V170h0a3,3,0,0,1-2.9,1.6,3,3,0,0,1-3.2-3.3v-6H705V168c0,1.5.7,2.3,2.2,2.3a2.3,2.3,0,0,0,2.3-2.6v-5.4h1.6Z"/><path d="M713,162.3h1.5v1.5h0a3.3,3.3,0,0,1,6.1,1.7v6h-1.5v-5.7c0-1.5-.7-2.3-2.1-2.3a2.4,2.4,0,0,0-2.4,2.6v5.4H713Z"/><path d="M722.1,166.9c0-2.9,1.6-4.7,3.9-4.7a3.2,3.2,0,0,1,2.9,1.6h0v-5h1.5v12.7H729v-1.6h-.1a3,3,0,0,1-2.9,1.7C723.7,171.6,722.1,169.8,722.1,166.9Zm1.5,0c0,2.1,1.1,3.4,2.7,3.4s2.6-1.3,2.6-3.4-1-3.4-2.6-3.4S723.6,164.8,723.6,166.9Z"/><path d="M740.1,168.9a3.7,3.7,0,0,1-3.8,2.7c-2.7,0-4.3-1.8-4.3-4.7s1.7-4.7,4.2-4.7,4,1.8,4,4.5v.6h-6.6a2.6,2.6,0,0,0,2.7,2.9,2.3,2.3,0,0,0,2.3-1.4Zm-6.5-2.8h5a2.4,2.4,0,0,0-2.4-2.6A2.6,2.6,0,0,0,733.6,166.1Z"/><path d="M741.7,162.3h1.5v1.5h0a2.2,2.2,0,0,1,2.2-1.6h.6v1.5h-.8a2,2,0,0,0-2,2.2v5.7h-1.5Z"/><path d="M750.5,162.2c1.9,0,3.3,1.1,3.4,2.7h-1.5a1.7,1.7,0,0,0-1.9-1.5c-1.2,0-1.9.6-1.9,1.4s.5,1,1.5,1.3l1.4.3c1.9.5,2.6,1.2,2.6,2.5s-1.6,2.7-3.7,2.7-3.4-1-3.5-2.7h1.5a1.8,1.8,0,0,0,2.1,1.5c1.3,0,2-.5,2-1.4s-.4-1-1.4-1.2l-1.6-.4c-1.6-.5-2.4-1.3-2.4-2.5S748.5,162.2,750.5,162.2Z"/><path d="M757.7,160.1v2.2h1.7v1.3h-1.7V169c0,.9.3,1.2,1.1,1.2h.6v1.3h-.9c-1.7,0-2.4-.7-2.4-2.5v-5.5h-1.3v-1.3h1.3v-2.2Z"/><path d="M760.5,168.9c0-1.6,1.2-2.6,3.3-2.7h2.6v-.8c0-1.1-.7-1.8-2-1.8a2,2,0,0,0-2.1,1.5h-1.4c.1-1.6,1.4-2.8,3.6-2.8s3.5,1.1,3.5,3v6.3h-1.5v-1.6h0a3.2,3.2,0,0,1-2.9,1.7C761.7,171.6,760.5,170.5,760.5,168.9Zm5.9-.9v-.7H764c-1.2.1-1.9.6-1.9,1.5s.7,1.4,1.8,1.4A2.4,2.4,0,0,0,766.4,168Z"/><path d="M769.9,162.3h1.5v1.5h0a3.3,3.3,0,0,1,6.1,1.7v6h-1.6v-5.7c0-1.5-.7-2.3-2.1-2.3a2.4,2.4,0,0,0-2.4,2.6v5.4h-1.5Z"/><path d="M779,166.9c0-2.9,1.5-4.7,3.8-4.7a3.1,3.1,0,0,1,2.9,1.6h.1v-5h1.5v12.7h-1.5v-1.6h0a3.1,3.1,0,0,1-2.9,1.7C780.5,171.6,779,169.8,779,166.9Zm1.5,0c0,2.1,1,3.4,2.7,3.4s2.6-1.3,2.6-3.4-1.1-3.4-2.6-3.4S780.5,164.8,780.5,166.9Z"/><path d="M804.3,171.5v-9.8h0l-4.1,9.7h-1.3l-4.1-9.7h0v9.8h-1.5V158.8h1.8l4.4,10.6h.1l4.4-10.6h1.8v12.7Z"/><path d="M807.4,168.9c0-1.6,1.2-2.6,3.3-2.7h2.6v-.8c0-1.1-.7-1.8-2-1.8a1.9,1.9,0,0,0-2.1,1.5h-1.5c.1-1.6,1.5-2.8,3.6-2.8s3.5,1.1,3.5,3v6.3h-1.4v-1.6h0a3.3,3.3,0,0,1-3,1.7A2.7,2.7,0,0,1,807.4,168.9Zm5.9-.9v-.7h-2.4c-1.3.1-2,.6-2,1.5s.8,1.4,1.9,1.4A2.4,2.4,0,0,0,813.3,168Z"/><path d="M816.8,162.3h1.4v1.5h.1a2.2,2.2,0,0,1,2.2-1.6h.6v1.5h-.8a2,2,0,0,0-2,2.2v5.7h-1.5Z"/><path d="M825.6,162.2c1.9,0,3.3,1.1,3.3,2.7h-1.4c-.1-.9-.8-1.5-2-1.5s-1.8.6-1.8,1.4.5,1,1.5,1.3l1.4.3c1.9.5,2.5,1.2,2.5,2.5s-1.5,2.7-3.6,2.7-3.4-1-3.6-2.7h1.6q.2,1.5,2.1,1.5c1.2,0,2-.5,2-1.4s-.4-1-1.4-1.2l-1.6-.4c-1.6-.5-2.4-1.3-2.4-2.5S823.6,162.2,825.6,162.2Z"/><path d="M834,168.9c0-1.6,1.2-2.6,3.3-2.7H840v-.8a1.8,1.8,0,0,0-2-1.8c-1.2,0-2,.6-2.1,1.5h-1.5c.1-1.6,1.4-2.8,3.6-2.8s3.5,1.1,3.5,3v6.3H840v-1.6h0a3.1,3.1,0,0,1-2.9,1.7A2.8,2.8,0,0,1,834,168.9Zm6-.9v-.7h-2.5c-1.2.1-1.9.6-1.9,1.5s.7,1.4,1.8,1.4A2.4,2.4,0,0,0,840,168Z"/><path d="M846.7,162.2c1.9,0,3.3,1.1,3.3,2.7h-1.4c-.1-.9-.8-1.5-2-1.5s-1.8.6-1.8,1.4.5,1,1.5,1.3l1.4.3c1.9.5,2.5,1.2,2.5,2.5s-1.5,2.7-3.6,2.7-3.4-1-3.6-2.7h1.6c.1,1,.9,1.5,2.1,1.5s2-.5,2-1.4-.4-1-1.4-1.2l-1.6-.4c-1.6-.5-2.4-1.3-2.4-2.5S844.7,162.2,846.7,162.2Z"/><path d="M855.1,168.9c0-1.6,1.2-2.6,3.3-2.7h2.7v-.8a1.8,1.8,0,0,0-2-1.8c-1.2,0-2,.6-2.1,1.5h-1.5c.1-1.6,1.4-2.8,3.6-2.8s3.5,1.1,3.5,3v6.3h-1.5v-1.6h0a3.1,3.1,0,0,1-2.9,1.7A2.8,2.8,0,0,1,855.1,168.9Zm6-.9v-.7h-2.5c-1.2.1-1.9.6-1.9,1.5s.7,1.4,1.8,1.4A2.4,2.4,0,0,0,861.1,168Z"/><path d="M868.3,158.8h1.5v5h.1a3,3,0,0,1,2.9-1.6c2,0,3.2,1.3,3.2,3.4v5.9h-1.5v-5.6a2.1,2.1,0,0,0-2.2-2.4,2.5,2.5,0,0,0-2.5,2.7v5.3h-1.5Z"/><path d="M877.6,168.9c0-1.6,1.2-2.6,3.3-2.7h2.6v-.8c0-1.1-.7-1.8-2-1.8a1.9,1.9,0,0,0-2.1,1.5h-1.5c.1-1.6,1.5-2.8,3.6-2.8s3.5,1.1,3.5,3v6.3h-1.4v-1.6h-.1a3.1,3.1,0,0,1-2.9,1.7A2.7,2.7,0,0,1,877.6,168.9Zm5.9-.9v-.7h-2.4c-1.3.1-2,.6-2,1.5s.8,1.4,1.8,1.4A2.4,2.4,0,0,0,883.5,168Z"/><path d="M888.5,169.9h0v1.6H887V158.8h1.6v5.1h0a3.1,3.1,0,0,1,2.9-1.7c2.3,0,3.9,1.8,3.9,4.7s-1.5,4.7-3.9,4.7A3.3,3.3,0,0,1,888.5,169.9Zm.1-3c0,2.1,1.1,3.4,2.6,3.4s2.6-1.3,2.6-3.4-1-3.4-2.6-3.4S888.6,164.9,888.6,166.9Z"/><path d="M896.8,159.9a1,1,0,0,1,1-1,.9.9,0,0,1,.9,1,.9.9,0,0,1-.9.9A1,1,0,0,1,896.8,159.9Zm.2,2.4h1.6v9.2H897Z"/><path d="M902.6,160.1v2.2h1.8v1.3h-1.8V169c0,.9.4,1.2,1.2,1.2h.6v1.3h-1c-1.6,0-2.3-.7-2.3-2.5v-5.5h-1.4v-1.3h1.4v-2.2Z"/><path d="M905.5,168.9c0-1.6,1.2-2.6,3.3-2.7h2.6v-.8c0-1.1-.7-1.8-2-1.8a1.9,1.9,0,0,0-2.1,1.5h-1.5c.1-1.6,1.5-2.8,3.7-2.8s3.5,1.1,3.5,3v6.3h-1.5v-1.6h0a3.3,3.3,0,0,1-3,1.7A2.7,2.7,0,0,1,905.5,168.9Zm5.9-.9v-.7H909c-1.2.1-1.9.6-1.9,1.5s.7,1.4,1.8,1.4A2.4,2.4,0,0,0,911.4,168Z"/><path d="M916.9,160.1v2.2h1.8v1.3h-1.8V169c0,.9.4,1.2,1.2,1.2h.6v1.3h-1c-1.7,0-2.3-.7-2.3-2.5v-5.5H914v-1.3h1.4v-2.2Z"/><path d="M924.5,163.6h-1.3v-1.3h1.3v-1c0-1.7.8-2.6,2.5-2.6h.9V160h-.7c-.8,0-1.2.4-1.2,1.3v1h1.9v1.3H926v7.9h-1.5Z"/><path d="M928.6,166.9c0-2.9,1.7-4.7,4.2-4.7s4.3,1.8,4.3,4.7-1.7,4.7-4.3,4.7S928.6,169.8,928.6,166.9Zm6.9,0c0-2.1-1.1-3.4-2.7-3.4s-2.6,1.3-2.6,3.4,1,3.4,2.6,3.4S935.5,169.1,935.5,166.9Z"/><path d="M938.6,162.3H940v1.5h.1a2.2,2.2,0,0,1,2.2-1.6h.6v1.5h-.8a2,2,0,0,0-2,2.2v5.7h-1.5Z"/><path d="M947.9,158.8h1.5v12.7h-1.5Z"/><path d="M951.4,159.9a.9.9,0,0,1,1-1,.9.9,0,0,1,.9,1,.9.9,0,0,1-.9.9A.9.9,0,0,1,951.4,159.9Zm.2,2.4h1.5v9.2h-1.5Z"/><path d="M955.7,163.6h-1.3v-1.3h1.3v-1c0-1.7.8-2.6,2.5-2.6h.9V160h-.7c-.8,0-1.2.4-1.2,1.3v1h1.9v1.3h-1.9v7.9h-1.5Z"/><path d="M967.8,168.9a3.6,3.6,0,0,1-3.8,2.7c-2.6,0-4.2-1.8-4.2-4.7s1.6-4.7,4.1-4.7,4,1.8,4,4.5v.6h-6.6a2.6,2.6,0,0,0,2.7,2.9,2.3,2.3,0,0,0,2.3-1.4Zm-6.5-2.8h5a2.4,2.4,0,0,0-2.4-2.6A2.6,2.6,0,0,0,961.3,166.1Z"/><path d="M969.2,174l.9-4.5h1.6l-1.2,4.5Z"/><path d="M976.6,165.1c0-3.9,2.2-6.5,5.7-6.5a5,5,0,0,1,5.2,4.2h-1.6a3.6,3.6,0,0,0-3.6-2.8c-2.5,0-4.1,2.1-4.1,5.1s1.6,5.1,4.1,5.1a3.5,3.5,0,0,0,3.6-2.4h1.6c-.5,2.5-2.4,3.9-5.2,3.9S976.6,169.2,976.6,165.1Z"/><path d="M996.7,171.5h-1.5V170h0a3,3,0,0,1-2.9,1.6,3,3,0,0,1-3.2-3.3v-6h1.5V168c0,1.5.7,2.3,2.2,2.3a2.3,2.3,0,0,0,2.3-2.6v-5.4h1.6Z"/><path d="M998.6,162.3h1.5v1.5h0a2.2,2.2,0,0,1,2.2-1.6h.7v1.5h-.9c-1.2,0-1.9.9-1.9,2.2v5.7h-1.6Z"/><path d="M1004.1,159.9a.9.9,0,0,1,.9-1,.9.9,0,0,1,1,1,.9.9,0,0,1-1,.9A.9.9,0,0,1,1004.1,159.9Zm.2,2.4h1.5v9.2h-1.5Z"/><path d="M1007.4,166.9c0-2.9,1.7-4.7,4.3-4.7s4.2,1.8,4.2,4.7-1.7,4.7-4.2,4.7S1007.4,169.8,1007.4,166.9Zm6.9,0c0-2.1-1-3.4-2.6-3.4s-2.7,1.3-2.7,3.4,1,3.4,2.7,3.4S1014.3,169.1,1014.3,166.9Z"/><path d="M1020.7,162.2c1.9,0,3.2,1.1,3.3,2.7h-1.4a1.8,1.8,0,0,0-2-1.5c-1.1,0-1.8.6-1.8,1.4s.4,1,1.5,1.3l1.4.3c1.8.5,2.5,1.2,2.5,2.5s-1.5,2.7-3.6,2.7-3.4-1-3.6-2.7h1.5c.2,1,.9,1.5,2.2,1.5s2-.5,2-1.4-.4-1-1.4-1.2l-1.6-.4c-1.7-.5-2.4-1.3-2.4-2.5S1018.7,162.2,1020.7,162.2Z"/><path d="M1025.7,159.9a.9.9,0,0,1,.9-1,.9.9,0,0,1,1,1,.9.9,0,0,1-1,.9A.9.9,0,0,1,1025.7,159.9Zm.2,2.4h1.5v9.2h-1.5Z"/><path d="M1031.5,160.1v2.2h1.8v1.3h-1.8V169c0,.9.3,1.2,1.1,1.2h.7v1.3h-1c-1.7,0-2.3-.7-2.3-2.5v-5.5h-1.4v-1.3h1.4v-2.2Z"/><path d="M1035,174.8v-1.2h.6c.8,0,1.3-.4,1.7-1.5l.2-.6-3.4-9.2h1.6l2.6,7.7h0l2.5-7.7h1.6l-3.6,9.8c-.7,2.2-1.5,2.8-3.2,2.8Z"/><path d="M1043.8,163.3v-4.5h1.4v4.5Z"/><path d="M1050.7,162.2c1.9,0,3.2,1.1,3.3,2.7h-1.4a1.8,1.8,0,0,0-2-1.5c-1.1,0-1.8.6-1.8,1.4s.4,1,1.5,1.3l1.4.3c1.8.5,2.5,1.2,2.5,2.5s-1.5,2.7-3.6,2.7-3.4-1-3.6-2.7h1.5c.2,1,.9,1.5,2.2,1.5s2-.5,2-1.4-.4-1-1.4-1.2l-1.6-.4c-1.7-.5-2.4-1.3-2.4-2.5S1048.7,162.2,1050.7,162.2Z"/><path d="M1067.8,166.9c0,2.9-1.5,4.7-3.8,4.7a3.3,3.3,0,0,1-3-1.6h0v4.5h-1.5V162.3h1.4v1.6h.1a3.2,3.2,0,0,1,2.9-1.7C1066.2,162.2,1067.8,164,1067.8,166.9Zm-1.5,0c0-2.1-1.1-3.4-2.7-3.4s-2.6,1.4-2.6,3.4,1.1,3.4,2.6,3.4S1066.3,169,1066.3,166.9Z"/><path d="M1069,168.9c0-1.6,1.2-2.6,3.3-2.7h2.6v-.8c0-1.1-.7-1.8-2-1.8a2,2,0,0,0-2.1,1.5h-1.5c.1-1.6,1.5-2.8,3.7-2.8s3.5,1.1,3.5,3v6.3H1075v-1.6h0a3.3,3.3,0,0,1-3,1.7A2.7,2.7,0,0,1,1069,168.9Zm5.9-.9v-.7h-2.4c-1.2.1-1.9.6-1.9,1.5s.7,1.4,1.8,1.4A2.4,2.4,0,0,0,1074.9,168Z"/><path d="M1078.4,162.3h1.4v1.5h.1a2.2,2.2,0,0,1,2.2-1.6h.6v1.5h-.8a2,2,0,0,0-2,2.2v5.7h-1.5Z"/><path d="M1086,160.1v2.2h1.7v1.3H1086V169c0,.9.3,1.2,1.1,1.2h.6v1.3h-.9c-1.7,0-2.4-.7-2.4-2.5v-5.5h-1.3v-1.3h1.3v-2.2Z"/><path d="M1092.6,162.2c1.9,0,3.3,1.1,3.4,2.7h-1.5a1.7,1.7,0,0,0-1.9-1.5c-1.1,0-1.9.6-1.9,1.4s.5,1,1.5,1.3l1.5.3c1.8.5,2.5,1.2,2.5,2.5s-1.5,2.7-3.7,2.7-3.4-1-3.5-2.7h1.5a1.8,1.8,0,0,0,2.1,1.5c1.3,0,2-.5,2-1.4s-.3-1-1.4-1.2l-1.6-.4c-1.6-.5-2.4-1.3-2.4-2.5S1090.6,162.2,1092.6,162.2Z"/><path d="M1101.1,168.9c0-1.6,1.2-2.6,3.3-2.7h2.6v-.8c0-1.1-.7-1.8-2-1.8a1.9,1.9,0,0,0-2.1,1.5h-1.5c.1-1.6,1.5-2.8,3.6-2.8s3.5,1.1,3.5,3v6.3h-1.4v-1.6h-.1a3.1,3.1,0,0,1-2.9,1.7A2.7,2.7,0,0,1,1101.1,168.9Zm5.9-.9v-.7h-2.4c-1.3.1-2,.6-2,1.5s.8,1.4,1.9,1.4A2.4,2.4,0,0,0,1107,168Z"/><path d="M1110.5,162.3h1.4v1.5h.1a2.2,2.2,0,0,1,2.2-1.6h.6v1.5h-.8a2,2,0,0,0-2,2.2v5.7h-1.5Z"/><path d="M1123.1,168.9c-.2,1.6-1.8,2.7-3.8,2.7s-4.2-1.8-4.2-4.7,1.7-4.7,4.2-4.7,4,1.8,4,4.5v.6h-6.6a2.6,2.6,0,0,0,2.7,2.9,2.2,2.2,0,0,0,2.2-1.4Zm-6.4-2.8h5a2.5,2.5,0,0,0-2.5-2.6A2.6,2.6,0,0,0,1116.7,166.1Z"/><path d="M353.2,183.8c1.9,0,3.3,1.1,3.4,2.7h-1.5a1.7,1.7,0,0,0-1.9-1.5c-1.1,0-1.9.6-1.9,1.4s.5,1,1.6,1.3l1.4.3c1.8.5,2.5,1.2,2.5,2.5s-1.5,2.7-3.7,2.7-3.4-1-3.5-2.7h1.5a1.8,1.8,0,0,0,2.1,1.5c1.3,0,2-.5,2-1.4s-.3-1-1.4-1.2l-1.6-.4c-1.6-.5-2.4-1.3-2.4-2.5S351.2,183.8,353.2,183.8Z"/><path d="M358.3,181.5a.9.9,0,0,1,.9-1,1,1,0,0,1,1,1,1,1,0,0,1-1,.9A.9.9,0,0,1,358.3,181.5Zm.1,2.4H360v9.2h-1.6Z"/><path d="M362,183.9h1.5v1.5h0a2.8,2.8,0,0,1,2.6-1.6,2.5,2.5,0,0,1,2.6,1.7h0a3,3,0,0,1,2.9-1.7,2.8,2.8,0,0,1,3,3v6.3H373v-6a1.8,1.8,0,0,0-1.9-2,2,2,0,0,0-2,2.2v5.8h-1.6V187a1.8,1.8,0,0,0-1.8-1.9,2.2,2.2,0,0,0-2.1,2.3v5.7H362Z"/><path d="M376.4,181.5a.9.9,0,0,1,.9-1,.9.9,0,0,1,1,1,.9.9,0,0,1-1,.9A.9.9,0,0,1,376.4,181.5Zm.2,2.4h1.5v9.2h-1.5Z"/><path d="M380.3,180.4h1.5v12.7h-1.5Z"/><path d="M383.5,190.5c0-1.6,1.2-2.5,3.3-2.7h2.6v-.8c0-1.1-.7-1.8-2-1.8a1.9,1.9,0,0,0-2.1,1.5h-1.5c.1-1.6,1.5-2.8,3.6-2.8s3.5,1.1,3.5,3v6.3h-1.4v-1.6h0a3.3,3.3,0,0,1-3,1.7A2.7,2.7,0,0,1,383.5,190.5Zm5.9-.9v-.7H387c-1.3.1-2,.6-2,1.5s.8,1.4,1.9,1.4A2.4,2.4,0,0,0,389.4,189.6Z"/><path d="M392.9,183.9h1.4v1.5h.1a2.2,2.2,0,0,1,2.2-1.6h.6v1.5h-.8a2,2,0,0,0-2,2.2v5.7h-1.5Z"/><path d="M404.1,181.7v2.2h1.8v1.3h-1.8v5.4c0,.9.4,1.2,1.2,1.2h.6v1.3h-1c-1.6,0-2.3-.7-2.3-2.5v-5.5h-1.3v-1.3h1.3v-2.2Z"/><path d="M406.8,188.5c0-2.9,1.7-4.7,4.3-4.7s4.2,1.8,4.2,4.7-1.7,4.7-4.2,4.7S406.8,191.4,406.8,188.5Zm6.9,0c0-2.1-1-3.4-2.6-3.4s-2.7,1.3-2.7,3.4,1.1,3.4,2.7,3.4S413.7,190.7,413.7,188.5Z"/><path d="M429.6,193.1H428l-2-7.1h-.1l-2,7.1h-1.6l-2.5-9.2h1.5l1.8,7.5h.1l2-7.5h1.5l2.1,7.5h0l1.8-7.5h1.6Z"/><path d="M433.5,180.4H435v5h0a3.2,3.2,0,0,1,2.9-1.6,3.1,3.1,0,0,1,3.3,3.4v5.9h-1.6v-5.6c0-1.5-.7-2.4-2.1-2.4a2.5,2.5,0,0,0-2.5,2.7v5.3h-1.5Z"/><path d="M442.7,190.5c0-1.6,1.2-2.5,3.3-2.7h2.7v-.8a1.8,1.8,0,0,0-2-1.8c-1.2,0-2,.6-2.1,1.5h-1.5c.1-1.6,1.4-2.8,3.6-2.8s3.5,1.1,3.5,3v6.3h-1.5v-1.6h0a3.1,3.1,0,0,1-2.9,1.7A2.8,2.8,0,0,1,442.7,190.5Zm6-.9v-.7h-2.5c-1.2.1-1.9.6-1.9,1.5s.7,1.4,1.8,1.4A2.4,2.4,0,0,0,448.7,189.6Z"/><path d="M454.2,181.7v2.2h1.7v1.3h-1.7v5.4c0,.9.3,1.2,1.1,1.2h.6v1.3H455c-1.7,0-2.4-.7-2.4-2.5v-5.5h-1.3v-1.3h1.3v-2.2Z"/><path d="M460.9,190.5c0-1.6,1.2-2.5,3.3-2.7h2.6v-.8c0-1.1-.7-1.8-2-1.8a1.9,1.9,0,0,0-2.1,1.5h-1.5c.1-1.6,1.5-2.8,3.6-2.8s3.5,1.1,3.5,3v6.3h-1.4v-1.6h0a3.3,3.3,0,0,1-3,1.7A2.7,2.7,0,0,1,460.9,190.5Zm5.9-.9v-.7h-2.4c-1.3.1-2,.6-2,1.5s.8,1.4,1.9,1.4A2.4,2.4,0,0,0,466.8,189.6Z"/><path d="M474.1,180.4h1.5v5h0a3,3,0,0,1,2.9-1.6c2,0,3.2,1.3,3.2,3.4v5.9h-1.5v-5.6c0-1.5-.7-2.4-2.2-2.4a2.4,2.4,0,0,0-2.4,2.7v5.3h-1.5Z"/><path d="M491.2,193.1h-1.5v-1.5h0a2.9,2.9,0,0,1-2.9,1.6,3,3,0,0,1-3.2-3.3v-6h1.6v5.7c0,1.5.7,2.3,2.1,2.3a2.3,2.3,0,0,0,2.4-2.6v-5.4h1.5Z"/><path d="M493.2,183.9h1.4v1.5h0a2.8,2.8,0,0,1,2.6-1.6,2.5,2.5,0,0,1,2.6,1.7h0a3,3,0,0,1,2.9-1.7,2.8,2.8,0,0,1,3,3v6.3h-1.5v-6a1.8,1.8,0,0,0-1.9-2,2,2,0,0,0-2.1,2.2v5.8h-1.5V187a1.8,1.8,0,0,0-1.9-1.9,2.2,2.2,0,0,0-2.1,2.3v5.7h-1.5Z"/><path d="M507.3,190.5c0-1.6,1.2-2.5,3.3-2.7h2.6v-.8c0-1.1-.7-1.8-2-1.8a1.9,1.9,0,0,0-2.1,1.5h-1.5c.1-1.6,1.5-2.8,3.6-2.8s3.5,1.1,3.5,3v6.3h-1.4v-1.6h-.1a3.1,3.1,0,0,1-2.9,1.7A2.7,2.7,0,0,1,507.3,190.5Zm5.9-.9v-.7h-2.5c-1.2.1-1.9.6-1.9,1.5s.7,1.4,1.8,1.4A2.4,2.4,0,0,0,513.2,189.6Z"/><path d="M516.7,183.9h1.4v1.5h0a3,3,0,0,1,2.9-1.6c2,0,3.2,1.3,3.2,3.4v5.9h-1.5v-5.7c0-1.5-.7-2.3-2.1-2.3a2.4,2.4,0,0,0-2.4,2.6v5.4h-1.5Z"/><path d="M538.9,193.1h-1.5l-2.1-7.1h0l-2.1,7.1h-1.6l-2.5-9.2h1.5l1.8,7.5h.1l2-7.5H536l2.1,7.5h0l1.9-7.5h1.5Z"/><path d="M542.3,188.5c0-2.9,1.7-4.7,4.2-4.7s4.2,1.8,4.2,4.7-1.7,4.7-4.2,4.7S542.3,191.4,542.3,188.5Zm6.9,0c0-2.1-1.1-3.4-2.7-3.4s-2.7,1.3-2.7,3.4,1.1,3.4,2.7,3.4S549.2,190.7,549.2,188.5Z"/><path d="M559.8,193.1h-1.5v-1.5h0a3,3,0,0,1-2.9,1.6,3,3,0,0,1-3.2-3.3v-6h1.6v5.7c0,1.5.6,2.3,2.1,2.3a2.3,2.3,0,0,0,2.3-2.6v-5.4h1.6Z"/><path d="M561.8,180.4h1.6v12.7h-1.6Z"/><path d="M565,188.5c0-2.9,1.5-4.7,3.8-4.7a3.3,3.3,0,0,1,3,1.6h0v-5h1.5v12.7h-1.4v-1.6h-.1a3.1,3.1,0,0,1-2.9,1.7C566.6,193.2,565,191.4,565,188.5Zm1.5,0c0,2.1,1.1,3.4,2.7,3.4s2.6-1.3,2.6-3.4-1.1-3.4-2.6-3.4S566.5,186.4,566.5,188.5Z"/><path d="M579.1,183.9h1.4v1.5h.1a2.9,2.9,0,0,1,2.9-1.6c2,0,3.1,1.3,3.1,3.4v5.9h-1.5v-5.7c0-1.5-.7-2.3-2.1-2.3a2.4,2.4,0,0,0-2.4,2.6v5.4h-1.5Z"/><path d="M596.1,190.5c-.2,1.6-1.8,2.7-3.8,2.7s-4.2-1.8-4.2-4.7,1.6-4.7,4.2-4.7,3.9,1.8,3.9,4.5v.6h-6.5a2.6,2.6,0,0,0,2.7,2.9,2.2,2.2,0,0,0,2.2-1.4Zm-6.4-2.8h5a2.5,2.5,0,0,0-2.5-2.6A2.6,2.6,0,0,0,589.7,187.7Z"/><path d="M605.4,190.5c-.3,1.6-1.9,2.7-3.9,2.7s-4.2-1.8-4.2-4.7,1.7-4.7,4.2-4.7,4,1.8,4,4.5v.6h-6.6a2.6,2.6,0,0,0,2.7,2.9,2.2,2.2,0,0,0,2.2-1.4Zm-6.5-2.8h5a2.5,2.5,0,0,0-2.5-2.6A2.6,2.6,0,0,0,598.9,187.7Z"/><path d="M606.6,188.5c0-2.9,1.5-4.7,3.8-4.7a3.1,3.1,0,0,1,2.9,1.6h.1v-5h1.5v12.7h-1.5v-1.6h0a3.1,3.1,0,0,1-2.9,1.7C608.1,193.2,606.6,191.4,606.6,188.5Zm1.5,0c0,2.1,1,3.4,2.7,3.4s2.6-1.3,2.6-3.4-1.1-3.4-2.6-3.4S608.1,186.4,608.1,188.5Z"/><path d="M622.7,181.7v2.2h1.8v1.3h-1.8v5.4c0,.9.3,1.2,1.1,1.2h.6v1.3h-.9c-1.7,0-2.3-.7-2.3-2.5v-5.5h-1.4v-1.3h1.4v-2.2Z"/><path d="M625.4,188.5c0-2.9,1.7-4.7,4.2-4.7s4.2,1.8,4.2,4.7-1.7,4.7-4.2,4.7S625.4,191.4,625.4,188.5Zm6.9,0c0-2.1-1.1-3.4-2.7-3.4s-2.7,1.3-2.7,3.4,1.1,3.4,2.7,3.4S632.3,190.7,632.3,188.5Z"/><path d="M646.6,190.5c-.2,1.6-1.8,2.7-3.8,2.7s-4.2-1.8-4.2-4.7,1.6-4.7,4.2-4.7,3.9,1.8,3.9,4.5v.6h-6.5a2.6,2.6,0,0,0,2.7,2.9,2.2,2.2,0,0,0,2.2-1.4Zm-6.4-2.8h5a2.5,2.5,0,0,0-2.5-2.6A2.6,2.6,0,0,0,640.2,187.7Z"/><path d="M651.3,189.6l-2.2,3.5h-1.7l3.1-4.6-3-4.6h1.7l2.2,3.5h0l2.2-3.5h1.7l-3.1,4.6,3,4.6h-1.7l-2.2-3.5Z"/><path d="M664.9,188.5c0,2.9-1.6,4.7-3.9,4.7a3.2,3.2,0,0,1-2.9-1.6h0v4.5h-1.5V183.9H658v1.6h0a3.5,3.5,0,0,1,3-1.7C663.3,183.8,664.9,185.6,664.9,188.5Zm-1.6,0c0-2.1-1-3.4-2.6-3.4s-2.6,1.4-2.6,3.4,1,3.4,2.6,3.4S663.3,190.6,663.3,188.5Z"/><path d="M666.5,180.4h1.6v12.7h-1.6Z"/><path d="M669.7,188.5c0-2.9,1.7-4.7,4.2-4.7s4.2,1.8,4.2,4.7-1.7,4.7-4.2,4.7S669.7,191.4,669.7,188.5Zm6.9,0c0-2.1-1.1-3.4-2.7-3.4s-2.7,1.3-2.7,3.4,1.1,3.4,2.7,3.4S676.6,190.7,676.6,188.5Z"/><path d="M679.7,183.9h1.4v1.5h0a2.3,2.3,0,0,1,2.3-1.6h.6v1.5h-.8a2,2,0,0,0-2,2.2v5.7h-1.5Z"/><path d="M692.3,190.5c-.2,1.6-1.8,2.7-3.8,2.7s-4.2-1.8-4.2-4.7,1.6-4.7,4.2-4.7,4,1.8,4,4.5v.6h-6.6a2.6,2.6,0,0,0,2.7,2.9,2.2,2.2,0,0,0,2.2-1.4Zm-6.4-2.8h5a2.5,2.5,0,0,0-2.5-2.6A2.6,2.6,0,0,0,685.9,187.7Z"/><path d="M708.9,193.1v-9.8h0l-4.1,9.7h-1.3l-4-9.7h-.1v9.8h-1.5V180.4h1.9l4.3,10.6h.1l4.4-10.6h1.8v12.7Z"/><path d="M712,190.5c0-1.6,1.2-2.5,3.3-2.7h2.6v-.8c0-1.1-.7-1.8-2-1.8a2,2,0,0,0-2.1,1.5h-1.4c.1-1.6,1.4-2.8,3.6-2.8s3.5,1.1,3.5,3v6.3H718v-1.6h0a3.2,3.2,0,0,1-2.9,1.7C713.2,193.2,712,192.1,712,190.5Zm5.9-.9v-.7h-2.4c-1.2.1-1.9.6-1.9,1.5s.7,1.4,1.8,1.4A2.4,2.4,0,0,0,717.9,189.6Z"/><path d="M721.4,183.9h1.5v1.5h0a2.2,2.2,0,0,1,2.2-1.6h.6v1.5h-.8a2,2,0,0,0-2,2.2v5.7h-1.5Z"/><path d="M730.2,183.8c1.9,0,3.3,1.1,3.4,2.7h-1.5a1.7,1.7,0,0,0-1.9-1.5c-1.2,0-1.9.6-1.9,1.4s.5,1,1.5,1.3l1.4.3c1.9.5,2.6,1.2,2.6,2.5s-1.5,2.7-3.7,2.7-3.4-1-3.5-2.7h1.5a1.8,1.8,0,0,0,2.1,1.5c1.3,0,2-.5,2-1.4s-.4-1-1.4-1.2l-1.6-.4c-1.6-.5-2.4-1.3-2.4-2.5S728.2,183.8,730.2,183.8Z"/><path d="M742.2,180.4h1.3c-1.3,1.5-2.2,4.8-2.2,7.7s.9,6.2,2.2,7.7h-1.3a12.1,12.1,0,0,1-2.5-7.7A11.7,11.7,0,0,1,742.2,180.4Z"/><path d="M746.4,191.5h0v1.6h-1.5V180.4h1.5v5.1h.1a3,3,0,0,1,2.9-1.7c2.3,0,3.9,1.8,3.9,4.7s-1.6,4.7-3.9,4.7A3.2,3.2,0,0,1,746.4,191.5Zm0-3c0,2.1,1.1,3.4,2.7,3.4s2.6-1.3,2.6-3.4-1-3.4-2.6-3.4S746.4,186.5,746.4,188.5Z"/><path d="M754.4,188.5c0-2.9,1.7-4.7,4.2-4.7s4.2,1.8,4.2,4.7-1.7,4.7-4.2,4.7S754.4,191.4,754.4,188.5Zm6.9,0c0-2.1-1.1-3.4-2.7-3.4s-2.7,1.3-2.7,3.4,1.1,3.4,2.7,3.4S761.3,190.7,761.3,188.5Z"/><path d="M763.9,188.5c0-2.9,1.6-4.7,3.9-4.7a3.1,3.1,0,0,1,2.9,1.6h0v-5h1.6v12.7h-1.5v-1.6h0a3.3,3.3,0,0,1-3,1.7C765.5,193.2,763.9,191.4,763.9,188.5Zm1.6,0c0,2.1,1,3.4,2.6,3.4s2.6-1.3,2.6-3.4-1-3.4-2.6-3.4S765.5,186.4,765.5,188.5Z"/><path d="M774.4,196.4v-1.2h.6c.9,0,1.4-.4,1.7-1.5l.2-.6-3.4-9.2h1.7l2.5,7.7h0l2.6-7.7h1.6l-3.6,9.8c-.8,2.2-1.6,2.8-3.2,2.8Z"/><path d="M781.5,195.6l.9-4.5H784l-1.2,4.5Z"/><path d="M790.7,191.5h0v1.6h-1.5V180.4h1.5v5.1h.1a3.1,3.1,0,0,1,2.9-1.7c2.3,0,3.9,1.8,3.9,4.7s-1.6,4.7-3.9,4.7A3.2,3.2,0,0,1,790.7,191.5Zm0-3c0,2.1,1.1,3.4,2.7,3.4s2.6-1.3,2.6-3.4-1-3.4-2.6-3.4S790.7,186.5,790.7,188.5Z"/><path d="M799.1,183.9h1.5v1.5h0a2.2,2.2,0,0,1,2.2-1.6h.6v1.5h-.8a2,2,0,0,0-2,2.2v5.7h-1.5Z"/><path d="M804.1,190.5c0-1.6,1.2-2.5,3.3-2.7H810v-.8c0-1.1-.7-1.8-2-1.8a2,2,0,0,0-2.1,1.5h-1.4c.1-1.6,1.4-2.8,3.6-2.8s3.5,1.1,3.5,3v6.3h-1.5v-1.6h0a3.2,3.2,0,0,1-2.9,1.7C805.3,193.2,804.1,192.1,804.1,190.5Zm5.9-.9v-.7h-2.4c-1.2.1-1.9.6-1.9,1.5s.7,1.4,1.8,1.4A2.4,2.4,0,0,0,810,189.6Z"/><path d="M813.4,181.5a.9.9,0,0,1,1-1,.9.9,0,0,1,.9,1,.9.9,0,0,1-.9.9A.9.9,0,0,1,813.4,181.5Zm.2,2.4h1.5v9.2h-1.5Z"/><path d="M817.2,183.9h1.4v1.5h.1a3,3,0,0,1,2.9-1.6c2,0,3.1,1.3,3.1,3.4v5.9h-1.5v-5.7c0-1.5-.7-2.3-2.1-2.3a2.4,2.4,0,0,0-2.4,2.6v5.4h-1.5Z"/><path d="M829.9,183.8c1.9,0,3.3,1.1,3.4,2.7h-1.5a1.7,1.7,0,0,0-1.9-1.5c-1.1,0-1.9.6-1.9,1.4s.5,1,1.5,1.3l1.5.3c1.8.5,2.5,1.2,2.5,2.5s-1.5,2.7-3.7,2.7-3.4-1-3.5-2.7h1.5a1.8,1.8,0,0,0,2.1,1.5c1.3,0,2-.5,2-1.4s-.3-1-1.4-1.2l-1.6-.4c-1.6-.5-2.4-1.3-2.4-2.5S827.9,183.8,829.9,183.8Z"/><path d="M834.8,195.6l.9-4.5h1.6l-1.2,4.5Z"/><path d="M850,190.5a3.6,3.6,0,0,1-3.8,2.7c-2.6,0-4.2-1.8-4.2-4.7s1.6-4.7,4.1-4.7,4,1.8,4,4.5v.6h-6.5c0,1.8,1,2.9,2.6,2.9a2.3,2.3,0,0,0,2.3-1.4Zm-6.4-2.8h4.9a2.4,2.4,0,0,0-2.4-2.6A2.6,2.6,0,0,0,843.6,187.7Z"/><path d="M851.8,196.4v-1.2h.5c.9,0,1.4-.4,1.7-1.5l.2-.6-3.3-9.2h1.6l2.5,7.7h.1l2.5-7.7h1.6l-3.6,9.8c-.8,2.2-1.5,2.8-3.2,2.8Z"/><path d="M867.7,190.5a3.6,3.6,0,0,1-3.8,2.7c-2.6,0-4.2-1.8-4.2-4.7s1.6-4.7,4.1-4.7,4,1.8,4,4.5v.6h-6.5c0,1.8,1,2.9,2.6,2.9a2.3,2.3,0,0,0,2.3-1.4Zm-6.4-2.8h4.9a2.4,2.4,0,0,0-2.4-2.6A2.6,2.6,0,0,0,861.3,187.7Z"/><path d="M872.6,183.8c1.9,0,3.3,1.1,3.4,2.7h-1.5a1.7,1.7,0,0,0-1.9-1.5c-1.2,0-1.9.6-1.9,1.4s.5,1,1.5,1.3l1.4.3c1.9.5,2.6,1.2,2.6,2.5s-1.6,2.7-3.7,2.7-3.4-1-3.5-2.7h1.5c.1,1,.9,1.5,2.1,1.5s2-.5,2-1.4-.4-1-1.4-1.2l-1.6-.4c-1.6-.5-2.4-1.3-2.4-2.5S870.6,183.8,872.6,183.8Z"/><path d="M877.5,195.6l.9-4.5H880l-1.2,4.5Z"/><path d="M884.7,190.5c0-1.6,1.3-2.5,3.4-2.7h2.6v-.8a1.8,1.8,0,0,0-2-1.8,1.9,1.9,0,0,0-2.1,1.5h-1.5c.1-1.6,1.4-2.8,3.6-2.8s3.5,1.1,3.5,3v6.3h-1.4v-1.6h-.1a3.1,3.1,0,0,1-2.9,1.7A2.8,2.8,0,0,1,884.7,190.5Zm6-.9v-.7h-2.5c-1.2.1-1.9.6-1.9,1.5s.7,1.4,1.8,1.4A2.4,2.4,0,0,0,890.7,189.6Z"/><path d="M894.2,183.9h1.4v1.5h0a2.2,2.2,0,0,1,2.2-1.6h.7v1.5h-.9a2,2,0,0,0-1.9,2.2v5.7h-1.5Z"/><path d="M899.7,183.9h1.4v1.5h.1a2.6,2.6,0,0,1,2.6-1.6,2.5,2.5,0,0,1,2.5,1.7h.1a2.9,2.9,0,0,1,2.8-1.7,2.8,2.8,0,0,1,3,3v6.3h-1.5v-6a1.8,1.8,0,0,0-1.9-2,2.1,2.1,0,0,0-2.1,2.2v5.8h-1.5V187a1.8,1.8,0,0,0-1.9-1.9,2.2,2.2,0,0,0-2.1,2.3v5.7h-1.5Z"/><path d="M913.9,195.6l.9-4.5h1.6l-1.2,4.5Z"/><path d="M921.6,180.4h1.5v12.7h-1.5Z"/><path d="M932.8,190.5a3.6,3.6,0,0,1-3.8,2.7c-2.6,0-4.2-1.8-4.2-4.7s1.6-4.7,4.1-4.7,4,1.8,4,4.5v.6h-6.6a2.6,2.6,0,0,0,2.7,2.9,2.3,2.3,0,0,0,2.3-1.4Zm-6.5-2.8h5a2.4,2.4,0,0,0-2.4-2.6A2.6,2.6,0,0,0,926.3,187.7Z"/><path d="M934.3,193.8h1.6a2.3,2.3,0,0,0,2.4,1.4,2.2,2.2,0,0,0,2.5-2.2v-1.5h0a3.5,3.5,0,0,1-3,1.7c-2.3,0-3.8-1.9-3.8-4.7s1.5-4.7,3.9-4.7a3.1,3.1,0,0,1,2.9,1.7h.1v-1.6h1.4v9c0,2.2-1.6,3.6-4.1,3.6S934.6,195.4,934.3,193.8Zm6.5-5.3c0-2-1.1-3.4-2.7-3.4s-2.6,1.3-2.6,3.4,1.1,3.3,2.6,3.3S940.8,190.5,940.8,188.5Z"/><path d="M947.6,183.8c1.9,0,3.2,1.1,3.3,2.7h-1.4a1.8,1.8,0,0,0-2-1.5c-1.1,0-1.8.6-1.8,1.4s.4,1,1.5,1.3l1.4.3c1.8.5,2.5,1.2,2.5,2.5s-1.5,2.7-3.6,2.7-3.4-1-3.6-2.7h1.5c.2,1,.9,1.5,2.2,1.5s2-.5,2-1.4-.4-1-1.4-1.2l-1.6-.4c-1.6-.5-2.4-1.3-2.4-2.5S945.6,183.8,947.6,183.8Z"/><path d="M952.5,195.6l.8-4.5h1.6l-1.2,4.5Z"/><path d="M967.6,190.5c-.2,1.6-1.8,2.7-3.8,2.7s-4.2-1.8-4.2-4.7,1.6-4.7,4.2-4.7,4,1.8,4,4.5v.6h-6.6a2.6,2.6,0,0,0,2.7,2.9,2.2,2.2,0,0,0,2.2-1.4Zm-6.4-2.8h5a2.5,2.5,0,0,0-2.5-2.6A2.6,2.6,0,0,0,961.2,187.7Z"/><path d="M971.3,181.7v2.2h1.8v1.3h-1.8v5.4c0,.9.4,1.2,1.2,1.2h.6v1.3h-1c-1.7,0-2.3-.7-2.3-2.5v-5.5h-1.4v-1.3h1.4v-2.2Z"/><path d="M980.6,186.9a2.3,2.3,0,0,0-2.4-1.8c-1.6,0-2.6,1.3-2.6,3.4s1.1,3.4,2.6,3.4a2.3,2.3,0,0,0,2.4-1.8h1.5a3.7,3.7,0,0,1-3.9,3.1c-2.5,0-4.2-1.7-4.2-4.7s1.7-4.7,4.2-4.7a3.5,3.5,0,0,1,3.8,3.1Z"/><path d="M983.8,192.2a.9.9,0,0,1,1-1,1,1,0,0,1,1,1,1.1,1.1,0,0,1-1,1A1,1,0,0,1,983.8,192.2Z"/><path d="M988.7,195.8h-1.3a14.6,14.6,0,0,0,0-15.4h1.3a13.1,13.1,0,0,1,0,15.4Z"/><path d="M994.1,192.2a1,1,0,0,1,1-1,.9.9,0,0,1,1,1,1,1,0,0,1-1,1A1.1,1.1,0,0,1,994.1,192.2Z"/><path d="M1001,186.7c0-3.9,2.2-6.5,5.7-6.5a5.2,5.2,0,0,1,5.3,4.2h-1.6a3.8,3.8,0,0,0-3.7-2.8c-2.5,0-4.1,2.1-4.1,5.1s1.6,5.1,4.1,5.1a3.6,3.6,0,0,0,3.7-2.4h1.6c-.6,2.5-2.5,3.9-5.3,3.9S1001,190.8,1001,186.7Z"/><path d="M1013.7,180.4h1.5v5h0a3,3,0,0,1,2.9-1.6c2,0,3.2,1.3,3.2,3.4v5.9h-1.5v-5.6c0-1.5-.7-2.4-2.2-2.4a2.4,2.4,0,0,0-2.4,2.7v5.3h-1.5Z"/><path d="M1030.8,190.5c-.2,1.6-1.8,2.7-3.8,2.7s-4.2-1.8-4.2-4.7,1.6-4.7,4.2-4.7,4,1.8,4,4.5v.6h-6.6a2.6,2.6,0,0,0,2.7,2.9,2.2,2.2,0,0,0,2.2-1.4Zm-6.4-2.8h5a2.5,2.5,0,0,0-2.5-2.6A2.6,2.6,0,0,0,1024.4,187.7Z"/><path d="M1038.6,186.9a2.2,2.2,0,0,0-2.3-1.8c-1.6,0-2.7,1.3-2.7,3.4s1.1,3.4,2.7,3.4a2.3,2.3,0,0,0,2.3-1.8h1.5a3.6,3.6,0,0,1-3.8,3.1c-2.6,0-4.2-1.7-4.2-4.7s1.6-4.7,4.2-4.7a3.7,3.7,0,0,1,3.8,3.1Z"/><path d="M1047.2,183.9h1.8l-3.9,4,4,5.2h-1.7l-3.4-4.3-.9.8v3.5h-1.5V180.4h1.5V188Z"/><path d="M1053.8,181.5a1,1,0,0,1,1-1,.9.9,0,0,1,.9,1,.9.9,0,0,1-.9.9A1,1,0,0,1,1053.8,181.5Zm.2,2.4h1.6v9.2H1054Z"/><path d="M1059.6,181.7v2.2h1.8v1.3h-1.8v5.4c0,.9.4,1.2,1.2,1.2h.6v1.3h-1c-1.6,0-2.3-.7-2.3-2.5v-5.5h-1.4v-1.3h1.4v-2.2Z"/><path d="M1066.3,188.5c0-2.9,1.7-4.7,4.2-4.7s4.2,1.8,4.2,4.7-1.7,4.7-4.2,4.7S1066.3,191.4,1066.3,188.5Zm6.9,0c0-2.1-1.1-3.4-2.7-3.4s-2.7,1.3-2.7,3.4,1.1,3.4,2.7,3.4S1073.2,190.7,1073.2,188.5Z"/><path d="M1083.8,193.1h-1.5v-1.5h0a2.9,2.9,0,0,1-2.9,1.6,3,3,0,0,1-3.2-3.3v-6h1.6v5.7c0,1.5.7,2.3,2.1,2.3a2.3,2.3,0,0,0,2.4-2.6v-5.4h1.5Z"/><path d="M1087.8,181.7v2.2h1.8v1.3h-1.8v5.4c0,.9.3,1.2,1.1,1.2h.7v1.3h-1c-1.7,0-2.3-.7-2.3-2.5v-5.5h-1.4v-1.3h1.4v-2.2Z"/><path d="M352,203.3v2.2h1.8v1.3H352v5.4c0,.9.4,1.2,1.1,1.2h.7v1.3h-1c-1.7,0-2.3-.7-2.3-2.5v-5.5h-1.4v-1.3h1.4v-2.2Z"/><path d="M355.5,202H357v5h.1a3,3,0,0,1,2.9-1.6c2,0,3.2,1.3,3.2,3.4v5.9h-1.6v-5.6c0-1.5-.7-2.4-2.1-2.4a2.5,2.5,0,0,0-2.5,2.7v5.3h-1.5Z"/><path d="M364.7,210.1c0-2.9,1.7-4.7,4.2-4.7s4.2,1.8,4.2,4.7-1.7,4.7-4.2,4.7S364.7,213,364.7,210.1Zm6.9,0c0-2.1-1.1-3.4-2.7-3.4s-2.7,1.3-2.7,3.4,1.1,3.4,2.7,3.4S371.6,212.3,371.6,210.1Z"/><path d="M382.2,214.7h-1.5v-1.5h0a3,3,0,0,1-2.9,1.6,3,3,0,0,1-3.2-3.3v-6h1.6v5.7c0,1.5.7,2.3,2.1,2.3s2.3-1,2.3-2.6v-5.4h1.6Z"/><path d="M384.1,215.4h1.5a2.3,2.3,0,0,0,2.4,1.4,2.2,2.2,0,0,0,2.5-2.2v-1.5h0a3.4,3.4,0,0,1-2.9,1.7c-2.4,0-3.9-1.9-3.9-4.7s1.5-4.7,3.9-4.7a3.3,3.3,0,0,1,3,1.7h0v-1.6h1.5v9c0,2.2-1.7,3.6-4.2,3.6S384.3,217,384.1,215.4Zm6.4-5.3c0-2-1-3.4-2.6-3.4s-2.6,1.3-2.6,3.4,1,3.3,2.6,3.3S390.5,212.1,390.5,210.1Z"/><path d="M394.1,202h1.6v5h0a3,3,0,0,1,2.9-1.6c2,0,3.2,1.3,3.2,3.4v5.9h-1.5v-5.6a2.1,2.1,0,0,0-2.2-2.4,2.4,2.4,0,0,0-2.4,2.7v5.3h-1.6Z"/><path d="M403.7,210.3v-1.5h5.8v1.5Z"/><path d="M411.4,210.3v-1.5h5.8v1.5Z"/><path d="M422.4,205.4c1.9,0,3.3,1.1,3.4,2.7h-1.5a1.7,1.7,0,0,0-1.9-1.5c-1.1,0-1.9.6-1.9,1.4s.5,1,1.5,1.3l1.5.3c1.8.5,2.5,1.2,2.5,2.5s-1.5,2.7-3.7,2.7-3.4-1-3.5-2.7h1.5a1.8,1.8,0,0,0,2.1,1.5c1.3,0,2-.5,2-1.4s-.3-1-1.4-1.2l-1.6-.4c-1.6-.5-2.4-1.3-2.4-2.5S420.4,205.4,422.4,205.4Z"/><path d="M427.1,210.1c0-2.9,1.7-4.7,4.2-4.7s4.3,1.8,4.3,4.7-1.7,4.7-4.3,4.7S427.1,213,427.1,210.1Zm6.9,0c0-2.1-1-3.4-2.7-3.4s-2.6,1.3-2.6,3.4,1,3.4,2.6,3.4S434,212.3,434,210.1Z"/><path d="M437.1,205.5h1.5V207h0a2.6,2.6,0,0,1,2.6-1.6,2.4,2.4,0,0,1,2.5,1.7h.1a3,3,0,0,1,2.8-1.7,2.8,2.8,0,0,1,3,3v6.3h-1.5v-6a1.8,1.8,0,0,0-1.9-2,2.1,2.1,0,0,0-2.1,2.2v5.8h-1.5v-6.1a1.8,1.8,0,0,0-1.9-1.9,2.2,2.2,0,0,0-2.1,2.3v5.7h-1.5Z"/><path d="M459.1,212.1c-.2,1.6-1.8,2.7-3.8,2.7s-4.2-1.8-4.2-4.7,1.6-4.7,4.2-4.7,3.9,1.8,3.9,4.5v.6h-6.5a2.6,2.6,0,0,0,2.7,2.9,2.2,2.2,0,0,0,2.2-1.4Zm-6.4-2.8h5a2.5,2.5,0,0,0-2.5-2.6A2.6,2.6,0,0,0,452.7,209.3Z"/><path d="M462.8,203.3v2.2h1.8v1.3h-1.8v5.4c0,.9.4,1.2,1.1,1.2h.7v1.3h-1c-1.7,0-2.3-.7-2.3-2.5v-5.5h-1.4v-1.3h1.4v-2.2Z"/><path d="M466.1,203.1a.9.9,0,0,1,1-1,.9.9,0,0,1,.9,1,.9.9,0,0,1-.9.9A.9.9,0,0,1,466.1,203.1Zm.2,2.4h1.5v9.2h-1.5Z"/><path d="M469.9,205.5h1.4V207h.1a2.6,2.6,0,0,1,2.6-1.6,2.5,2.5,0,0,1,2.5,1.7h.1a2.9,2.9,0,0,1,2.8-1.7,2.8,2.8,0,0,1,3,3v6.3h-1.5v-6a1.8,1.8,0,0,0-1.9-2,2.1,2.1,0,0,0-2.1,2.2v5.8h-1.5v-6.1a1.8,1.8,0,0,0-1.9-1.9,2.2,2.2,0,0,0-2.1,2.3v5.7h-1.5Z"/><path d="M491.9,212.1a3.6,3.6,0,0,1-3.8,2.7c-2.6,0-4.2-1.8-4.2-4.7s1.6-4.7,4.1-4.7,4,1.8,4,4.5v.6h-6.5c0,1.8,1,2.9,2.6,2.9a2.2,2.2,0,0,0,2.3-1.4Zm-6.4-2.8h4.9a2.4,2.4,0,0,0-2.4-2.6A2.6,2.6,0,0,0,485.5,209.3Z"/><path d="M496.8,205.4c1.9,0,3.3,1.1,3.4,2.7h-1.5a1.7,1.7,0,0,0-1.9-1.5c-1.2,0-1.9.6-1.9,1.4s.5,1,1.5,1.3l1.4.3c1.9.5,2.6,1.2,2.6,2.5s-1.5,2.7-3.7,2.7-3.4-1-3.5-2.7h1.5a1.8,1.8,0,0,0,2.1,1.5c1.3,0,2-.5,2-1.4s-.4-1-1.4-1.2l-1.6-.4c-1.6-.5-2.4-1.3-2.4-2.5S494.8,205.4,496.8,205.4Z"/><path d="M507.7,203.3v2.2h1.7v1.3h-1.7v5.4c0,.9.3,1.2,1.1,1.2h.6v1.3h-.9c-1.7,0-2.4-.7-2.4-2.5v-5.5h-1.3v-1.3h1.3v-2.2Z"/><path d="M511.1,202h1.6v5h0a3,3,0,0,1,2.9-1.6c2,0,3.2,1.3,3.2,3.4v5.9h-1.5v-5.6c0-1.5-.7-2.4-2.2-2.4a2.4,2.4,0,0,0-2.4,2.7v5.3h-1.6Z"/><path d="M528.3,212.1c-.2,1.6-1.8,2.7-3.8,2.7s-4.2-1.8-4.2-4.7,1.6-4.7,4.1-4.7,4,1.8,4,4.5v.6h-6.5a2.6,2.6,0,0,0,2.7,2.9,2.2,2.2,0,0,0,2.2-1.4Zm-6.4-2.8h5a2.5,2.5,0,0,0-2.5-2.6A2.6,2.6,0,0,0,521.9,209.3Z"/><path d="M530.1,218v-1.2h.6c.8,0,1.3-.4,1.6-1.5l.3-.6-3.4-9.2h1.6l2.6,7.7h0l2.5-7.7h1.6l-3.6,9.8c-.8,2.2-1.5,2.8-3.2,2.8Z"/><path d="M542,212.1c0-1.6,1.2-2.6,3.4-2.7H548v-.8a1.8,1.8,0,0,0-2-1.8,1.9,1.9,0,0,0-2.1,1.5h-1.5c.1-1.6,1.4-2.8,3.6-2.8s3.5,1.1,3.5,3v6.3h-1.4v-1.6H548a3.1,3.1,0,0,1-2.9,1.7A2.8,2.8,0,0,1,542,212.1Zm6-.9v-.7h-2.5c-1.2.1-1.9.6-1.9,1.5s.7,1.4,1.8,1.4A2.4,2.4,0,0,0,548,211.2Z"/><path d="M551.4,205.5h1.5V207h0a2.2,2.2,0,0,1,2.2-1.6h.7v1.5h-.9A2,2,0,0,0,553,209v5.7h-1.6Z"/><path d="M564.1,212.1c-.2,1.6-1.8,2.7-3.8,2.7s-4.2-1.8-4.2-4.7,1.6-4.7,4.1-4.7,4,1.8,4,4.5v.6h-6.5a2.6,2.6,0,0,0,2.7,2.9,2.2,2.2,0,0,0,2.2-1.4Zm-6.4-2.8h5a2.5,2.5,0,0,0-2.5-2.6A2.6,2.6,0,0,0,557.7,209.3Z"/><path d="M569.5,202h1.6v12.7h-1.6Z"/><path d="M572.7,210.1c0-2.9,1.7-4.7,4.2-4.7s4.3,1.8,4.3,4.7-1.8,4.7-4.3,4.7S572.7,213,572.7,210.1Zm6.9,0c0-2.1-1.1-3.4-2.7-3.4s-2.7,1.3-2.7,3.4,1.1,3.4,2.7,3.4S579.6,212.3,579.6,210.1Z"/><path d="M588.8,208.5a2.2,2.2,0,0,0-2.3-1.8c-1.6,0-2.7,1.3-2.7,3.4s1.1,3.4,2.7,3.4a2.3,2.3,0,0,0,2.3-1.8h1.5a3.6,3.6,0,0,1-3.8,3.1c-2.6,0-4.3-1.7-4.3-4.7s1.7-4.7,4.2-4.7a3.7,3.7,0,0,1,3.9,3.1Z"/><path d="M591.3,212.1c0-1.6,1.2-2.6,3.4-2.7h2.6v-.8a1.8,1.8,0,0,0-2-1.8,1.9,1.9,0,0,0-2.1,1.5h-1.5c.1-1.6,1.4-2.8,3.6-2.8s3.5,1.1,3.5,3v6.3h-1.4v-1.6h-.1a3.1,3.1,0,0,1-2.9,1.7A2.8,2.8,0,0,1,591.3,212.1Zm6-.9v-.7h-2.5c-1.2.1-1.9.6-1.9,1.5s.7,1.4,1.8,1.4A2.4,2.4,0,0,0,597.3,211.2Z"/><path d="M602.8,203.3v2.2h1.7v1.3h-1.7v5.4c0,.9.3,1.2,1.1,1.2h.6v1.3h-.9c-1.7,0-2.4-.7-2.4-2.5v-5.5h-1.3v-1.3h1.3v-2.2Z"/><path d="M613.5,212.1a3.6,3.6,0,0,1-3.8,2.7c-2.7,0-4.2-1.8-4.2-4.7s1.6-4.7,4.1-4.7,4,1.8,4,4.5v.6H607a2.6,2.6,0,0,0,2.7,2.9,2.3,2.3,0,0,0,2.3-1.4Zm-6.5-2.8h5a2.4,2.4,0,0,0-2.4-2.6A2.6,2.6,0,0,0,607,209.3Z"/><path d="M614.7,210.1c0-2.9,1.5-4.7,3.9-4.7a3.2,3.2,0,0,1,2.9,1.6h0v-5H623v12.7h-1.4v-1.6h-.1a3,3,0,0,1-2.9,1.7C616.3,214.8,614.7,213,614.7,210.1Zm1.5,0c0,2.1,1.1,3.4,2.7,3.4s2.6-1.3,2.6-3.4-1-3.4-2.6-3.4S616.2,208,616.2,210.1Z"/><path d="M628.7,203.1a.9.9,0,0,1,.9-1,.9.9,0,0,1,1,1,.9.9,0,0,1-1,.9A.9.9,0,0,1,628.7,203.1Zm.2,2.4h1.5v9.2h-1.5Z"/><path d="M632.5,205.5h1.4V207h0a3,3,0,0,1,2.9-1.6c2,0,3.2,1.3,3.2,3.4v5.9h-1.5V209c0-1.5-.7-2.3-2.1-2.3a2.4,2.4,0,0,0-2.4,2.6v5.4h-1.5Z"/><path d="M645.2,210.1c0-2.9,1.7-4.7,4.2-4.7s4.2,1.8,4.2,4.7-1.7,4.7-4.2,4.7S645.2,213,645.2,210.1Zm6.9,0c0-2.1-1.1-3.4-2.7-3.4s-2.7,1.3-2.7,3.4,1.1,3.4,2.7,3.4S652.1,212.3,652.1,210.1Z"/><path d="M654.7,210.1c0-2.9,1.6-4.7,3.9-4.7a3.1,3.1,0,0,1,2.9,1.6h.1v-5h1.5v12.7h-1.5v-1.6h0a3.2,3.2,0,0,1-3,1.7C656.3,214.8,654.7,213,654.7,210.1Zm1.6,0c0,2.1,1,3.4,2.6,3.4s2.7-1.3,2.7-3.4-1.1-3.4-2.7-3.4S656.3,208,656.3,210.1Z"/><path d="M664.7,210.1c0-2.9,1.6-4.7,3.9-4.7a3.2,3.2,0,0,1,2.9,1.6h0v-5h1.6v12.7h-1.5v-1.6h0a3.3,3.3,0,0,1-3,1.7C666.3,214.8,664.7,213,664.7,210.1Zm1.6,0c0,2.1,1,3.4,2.6,3.4s2.6-1.3,2.6-3.4-1-3.4-2.6-3.4S666.3,208,666.3,210.1Z"/><path d="M687.2,210.1c0,2.9-1.6,4.7-3.9,4.7a3.1,3.1,0,0,1-2.9-1.6h-.1v4.5h-1.5V205.5h1.5v1.6h0a3.3,3.3,0,0,1,2.9-1.7C685.6,205.4,687.2,207.2,687.2,210.1Zm-1.6,0c0-2.1-1-3.4-2.7-3.4s-2.6,1.4-2.6,3.4,1.1,3.4,2.6,3.4S685.6,212.2,685.6,210.1Z"/><path d="M688.8,202h1.5v12.7h-1.5Z"/><path d="M692,212.1c0-1.6,1.2-2.6,3.3-2.7h2.6v-.8c0-1.1-.7-1.8-2-1.8a2,2,0,0,0-2.1,1.5h-1.5c.2-1.6,1.5-2.8,3.7-2.8s3.5,1.1,3.5,3v6.3H698v-1.6h0a3.3,3.3,0,0,1-3,1.7A2.7,2.7,0,0,1,692,212.1Zm5.9-.9v-.7h-2.4c-1.2.1-1.9.6-1.9,1.5s.7,1.4,1.8,1.4A2.4,2.4,0,0,0,697.9,211.2Z"/><path d="M707.5,208.5a2.2,2.2,0,0,0-2.3-1.8c-1.6,0-2.7,1.3-2.7,3.4s1.1,3.4,2.7,3.4a2.2,2.2,0,0,0,2.3-1.8H709a3.5,3.5,0,0,1-3.8,3.1c-2.6,0-4.2-1.7-4.2-4.7s1.6-4.7,4.2-4.7a3.7,3.7,0,0,1,3.8,3.1Z"/><path d="M718,212.1a3.6,3.6,0,0,1-3.8,2.7c-2.6,0-4.2-1.8-4.2-4.7s1.6-4.7,4.1-4.7,4,1.8,4,4.5v.6h-6.6a2.6,2.6,0,0,0,2.7,2.9,2.3,2.3,0,0,0,2.3-1.4Zm-6.4-2.8h4.9a2.4,2.4,0,0,0-2.4-2.6A2.6,2.6,0,0,0,711.6,209.3Z"/><path d="M722.9,205.4c1.9,0,3.3,1.1,3.3,2.7h-1.4c-.1-.9-.8-1.5-2-1.5s-1.8.6-1.8,1.4.5,1,1.5,1.3l1.4.3c1.9.5,2.5,1.2,2.5,2.5s-1.5,2.7-3.6,2.7-3.4-1-3.6-2.7h1.6c.1,1,.9,1.5,2.1,1.5s2-.5,2-1.4-.4-1-1.4-1.2l-1.6-.4c-1.6-.5-2.4-1.3-2.4-2.5S720.9,205.4,722.9,205.4Z"/><path d="M728.4,213.8a1,1,0,0,1,1-1,.9.9,0,0,1,1,1,1,1,0,0,1-1,1A1.1,1.1,0,0,1,728.4,213.8Zm1.8-11.8v8.5h-1.4V202Z"/><path class="cls-2" d="M30.7,45.2V42.7H46.2v2.5H40.6V56.6H36.4V45.2Z"/><path class="cls-2" d="M48.3,56.6V42.7H61.8v2.5H52.5v2.9h8.2v2.5H52.5v3.5h9.3v2.5Z"/><path class="cls-2" d="M64.5,53.7V45.6c0-1.9,1.2-2.9,3.6-2.9h9.8v2.5H69.4c-.5,0-.7.2-.7.6v7.7c0,.4.2.6.7.6h8.5v2.5H68.1C65.7,56.6,64.5,55.6,64.5,53.7Z"/><path class="cls-2" d="M80.7,56.6V42.7h4.2v5.4H91V42.7h4.2V56.6H91v-6H84.9v6Z"/><path class="cls-2" d="M105,56.6V54.1h9c.4,0,.7-.2.7-.6V51.2c0-.4-.3-.6-.7-.6h-5.4c-2.4,0-3.6-1-3.6-2.9V45.6c0-1.9,1.2-2.9,3.6-2.9h9.2v2.5H110c-.5,0-.8.2-.8.6v1.7c0,.4.3.6.8.6h5.3c2.4,0,3.6.9,3.6,2.8v2.8c0,1.9-1.2,2.9-3.6,2.9Z"/><path class="cls-2" d="M121.8,56.6V42.7h10.3c2.4,0,3.6,1,3.6,2.9v3.2c0,1.9-1.2,2.8-3.6,2.8H126v5Zm4.2-7.5h4.8c.4,0,.7-.2.7-.6V45.8c0-.4-.3-.6-.7-.6H126Z"/><path class="cls-2" d="M138.4,56.6V42.7h13.5v2.5h-9.3v2.9h8.2v2.5h-8.2v3.5h9.3v2.5Z"/><path class="cls-2" d="M154.6,53.7V45.6c0-1.9,1.2-2.9,3.6-2.9H168v2.5h-8.5c-.5,0-.7.2-.7.6v7.7c0,.4.2.6.7.6H168v2.5h-9.8C155.8,56.6,154.6,55.6,154.6,53.7Z"/><path class="cls-2" d="M170.6,56.6V54.1h8.9c.5,0,.7-.2.7-.6V51.2c0-.4-.2-.6-.7-.6h-5.4c-2.4,0-3.5-1-3.5-2.9V45.6c0-1.9,1.1-2.9,3.5-2.9h9.3v2.5h-7.9c-.5,0-.7.2-.7.6v1.7c0,.4.2.6.7.6h5.3c2.4,0,3.6.9,3.6,2.8v2.8c0,1.9-1.2,2.9-3.6,2.9Z"/><path class="cls-2" d="M30.3,98.4h2.3l2.6,8.4L38,98.4h2.6l2.8,8.4L46,98.4h2.2L45,108.9H42l-2.7-8-2.7,8h-3Z"/><path class="cls-2" d="M49.8,108.9V98.4H52v10.5Z"/><path class="cls-2" d="M54.4,108.9V98.4h5.4c3.5,0,5.2,1.4,5.2,4.1v2.4c0,2.7-1.7,4-5.2,4Zm2.2-1.3h2.9c2.2,0,3.2-.9,3.2-2.6v-2.7c0-1.7-1-2.6-3.2-2.6H56.6Z"/><path class="cls-2" d="M65.9,99.7V98.4H77.1v1.3H72.6v9.2H70.4V99.7Z"/><path class="cls-2" d="M78.7,108.9V98.4H81v4.2h6V98.4h2.3v10.5H87V104H81v4.9Z"/><path class="cls-2" d="M91.8,103.2v-1.9H94v1.9Zm0,5.7V107H94v1.9Z"/><path class="cls-2" d="M101.4,102.1v-1.8c0-1.3.8-1.9,2.4-1.9h4.6c1.6,0,2.4.6,2.4,1.9v6.3c0,1.6-1,2.3-2.9,2.3H102v-1.3h5.3c.8,0,1.3-.4,1.3-1V104h-4.8C102.2,104,101.4,103.3,101.4,102.1Zm2.2,0c0,.4.2.5.6.5h4.4v-2.3c0-.4-.3-.6-.7-.6h-3.7a.5.5,0,0,0-.6.6Z"/><path class="cls-2" d="M117.9,108.9v-8.7c0-1.2.8-1.8,2.3-1.8h2.7v1.2h-2.3c-.4,0-.6.1-.6.4v1.3h2.9v1.2H120v6.4Z"/><path class="cls-2" d="M124.5,107.2v-4.1c0-1.2.7-1.8,2.2-1.8h3.7c1.5,0,2.2.6,2.2,1.8v2.4h-6v1.8c0,.3.1.4.5.4h5.2v1.2h-5.6C125.2,108.9,124.5,108.3,124.5,107.2Zm2.1-2.9h4v-1.4c0-.3-.2-.4-.6-.4h-2.9c-.4,0-.5.1-.5.4Z"/><path class="cls-2" d="M134.7,107.2v-4.1c0-1.2.8-1.8,2.3-1.8h3.6c1.5,0,2.3.6,2.3,1.8v2.4h-6.1v1.8c0,.3.2.4.6.4h5.2v1.2H137C135.5,108.9,134.7,108.3,134.7,107.2Zm2.1-2.9h4v-1.4c0-.3-.2-.4-.6-.4h-2.8c-.4,0-.6.1-.6.4Z"/><path class="cls-2" d="M145,107.2V98.4h2v2.9h2.9v1.2H147v4.8c0,.3.2.4.6.4h2.3v1.2h-2.7C145.7,108.9,145,108.3,145,107.2Z"/><path class="cls-2" d="M157,105.3a10.9,10.9,0,0,1,2.4-6.9h1.9a11.7,11.7,0,0,0,0,13.9h-1.9A11,11,0,0,1,157,105.3Z"/><path class="cls-2" d="M163,108.9v-4.4c0-1.2.8-1.9,2.4-1.9h4.1c.4,0,.7-.1.7-.5v-1.8c0-.4-.3-.6-.7-.6h-5.7V98.4H170c1.6,0,2.4.6,2.4,1.9v1.8c0,1.2-.8,1.9-2.4,1.9h-4.2c-.4,0-.6.2-.6.5v3.1h7.2v1.3Z"/><path class="cls-2" d="M174.6,108.9V107h2.3v1.9Z"/><path class="cls-2" d="M179.1,99.7V98.4h9.5v1.3l-5.1,9.2H181l5.1-9.2Z"/><path class="cls-2" d="M195.7,108.9v-7.6h10.7c1.5,0,2.2.6,2.2,1.8v5.8h-2v-6c0-.3-.2-.4-.6-.4h-2.8v6.4h-2.1v-6c0-.3-.2-.4-.5-.4h-2.8v6.4Z"/><path class="cls-2" d="M210.7,107.2v-4.1c0-1.2.8-1.8,2.3-1.8h3.6c1.5,0,2.3.6,2.3,1.8v2.4h-6.1v1.8c0,.3.2.4.6.4h5.2v1.2H213C211.5,108.9,210.7,108.3,210.7,107.2Zm2.1-2.9h4v-1.4c0-.3-.2-.4-.6-.4h-2.8c-.4,0-.6.1-.6.4Z"/><path class="cls-2" d="M221,107.2V98.4h2v2.9h2.9v1.2H223v4.8c0,.3.2.4.6.4h2.3v1.2h-2.7C221.7,108.9,221,108.3,221,107.2Z"/><path class="cls-2" d="M227.7,107.2v-4.1c0-1.2.7-1.8,2.2-1.8h3.7c1.5,0,2.2.6,2.2,1.8v2.4h-6v1.8c0,.3.1.4.5.4h5.2v1.2h-5.6C228.4,108.9,227.7,108.3,227.7,107.2Zm2.1-2.9h4v-1.4c0-.3-.2-.4-.6-.4h-2.9c-.4,0-.5.1-.5.4Z"/><path class="cls-2" d="M237.9,108.9v-5.8c0-1.2.8-1.8,2.3-1.8h2.7v1.2h-2.3c-.4,0-.6.1-.6.4v6Z"/><path class="cls-2" d="M244.3,108.9v-1.2h5.1c.3,0,.5-.1.5-.4V106a.5.5,0,0,0-.5-.5h-2.8c-1.5,0-2.3-.6-2.3-1.8v-.6c0-1.2.8-1.8,2.3-1.8h4.8v1.2H247c-.4,0-.6.1-.6.4v1c0,.3.2.4.6.4h2.8c1.5,0,2.2.6,2.2,1.8v1.1c0,1.1-.7,1.7-2.2,1.7Z"/><path class="cls-2" d="M253.1,112.3a11.7,11.7,0,0,0,0-13.9H255a11.3,11.3,0,0,1,0,13.9Z"/><path class="cls-2" d="M31.2,144.9V134.4h2.2v4.2h6.1v-4.2h2.3v10.5H39.5V140H33.4v4.9Z"/><path class="cls-2" d="M44.2,144.9V134.4h9.7v1.3H46.4v2.9h6.7V140H46.4v3.6h7.5v1.3Z"/><path class="cls-2" d="M56,144.9V134.4h2.2v10.5Z"/><path class="cls-2" d="M60.6,143v-6.7c0-1.3.8-1.9,2.4-1.9h7.4v1.3H63.5a.5.5,0,0,0-.6.6v6.8c0,.3.2.5.6.5h5.3V140H66.1v-1.4H71v6.3H63C61.4,144.9,60.6,144.3,60.6,143Z"/><path class="cls-2" d="M73.4,144.9V134.4h2.3v4.2h6.1v-4.2H84v10.5H81.8V140H75.7v4.9Z"/><path class="cls-2" d="M85.6,135.7v-1.3H96.8v1.3H92.3v9.2H90.1v-9.2Z"/><path class="cls-2" d="M97.8,139.2v-1.9h2.3v1.9Zm0,5.7V143h2.3v1.9Z"/><path class="cls-2" d="M107.4,135.7v-1.3h9.5v1.3l-5.1,9.2h-2.4l5-9.2Z"/><path class="cls-2" d="M124,144.9v-8.7c0-1.2.7-1.8,2.2-1.8H129v1.2h-2.4c-.3,0-.5.1-.5.4v1.3H129v1.2h-2.9v6.4Z"/><path class="cls-2" d="M130.6,143.2v-4.1c0-1.2.7-1.8,2.2-1.8h3.7c1.5,0,2.2.6,2.2,1.8v2.4h-6.1v1.8c0,.3.2.4.6.4h5.2v1.2h-5.6C131.3,144.9,130.6,144.3,130.6,143.2Zm2-2.9h4v-1.4c0-.3-.1-.4-.5-.4h-2.9c-.4,0-.6.1-.6.4Z"/><path class="cls-2" d="M140.8,143.2v-4.1c0-1.2.7-1.8,2.2-1.8h3.7c1.5,0,2.3.6,2.3,1.8v2.4h-6.1v1.8c0,.3.2.4.5.4h5.2v1.2H143C141.5,144.9,140.8,144.3,140.8,143.2Zm2.1-2.9h4v-1.4c0-.3-.2-.4-.6-.4h-2.9c-.3,0-.5.1-.5.4Z"/><path class="cls-2" d="M151,143.2v-8.8h2.1v2.9H156v1.2h-2.9v4.8c0,.3.2.4.6.4H156v1.2h-2.7C151.8,144.9,151,144.3,151,143.2Z"/><path class="cls-2" d="M163,141.3a11,11,0,0,1,2.5-6.9h1.9a11.7,11.7,0,0,0,0,13.9h-1.9A11.1,11.1,0,0,1,163,141.3Z"/><path class="cls-2" d="M169,144.9v-4.4c0-1.2.8-1.9,2.4-1.9h4.2c.4,0,.6-.1.6-.5v-1.8a.5.5,0,0,0-.6-.6h-5.8v-1.3h6.3c1.6,0,2.4.6,2.4,1.9v1.8c0,1.2-.8,1.9-2.4,1.9h-4.2c-.4,0-.6.2-.6.5v3.1h7.2v1.3Z"/><path class="cls-2" d="M180.7,144.9V143H183v1.9Z"/><path class="cls-2" d="M185.2,144.9v-4.4c0-1.2.8-1.9,2.4-1.9h4.2c.4,0,.6-.1.6-.5v-1.8a.5.5,0,0,0-.6-.6H186v-1.3h6.2c1.6,0,2.4.6,2.4,1.9v1.8c0,1.2-.8,1.9-2.4,1.9h-4.1c-.4,0-.7.2-.7.5v3.1h7.2v1.3Z"/><path class="cls-2" d="M201.8,144.9v-7.6h10.7c1.5,0,2.2.6,2.2,1.8v5.8h-2.1v-6c0-.3-.1-.4-.5-.4h-2.8v6.4h-2.1v-6c0-.3-.2-.4-.6-.4h-2.8v6.4Z"/><path class="cls-2" d="M216.8,143.2v-4.1c0-1.2.7-1.8,2.2-1.8h3.7c1.5,0,2.3.6,2.3,1.8v2.4h-6.1v1.8c0,.3.2.4.5.4h5.2v1.2H219C217.5,144.9,216.8,144.3,216.8,143.2Zm2.1-2.9h4v-1.4c0-.3-.2-.4-.6-.4h-2.9c-.3,0-.5.1-.5.4Z"/><path class="cls-2" d="M227,143.2v-8.8h2.1v2.9H232v1.2h-2.9v4.8c0,.3.2.4.6.4H232v1.2h-2.7C227.8,144.9,227,144.3,227,143.2Z"/><path class="cls-2" d="M233.8,143.2v-4.1c0-1.2.7-1.8,2.2-1.8h3.7c1.5,0,2.2.6,2.2,1.8v2.4h-6.1v1.8c0,.3.2.4.6.4h5.2v1.2H236C234.5,144.9,233.8,144.3,233.8,143.2Zm2-2.9h4v-1.4c0-.3-.1-.4-.5-.4h-2.9c-.4,0-.6.1-.6.4Z"/><path class="cls-2" d="M244,144.9v-5.8c0-1.2.7-1.8,2.2-1.8H249v1.2h-2.4c-.3,0-.5.1-.5.4v6Z"/><path class="cls-2" d="M250.4,144.9v-1.2h5c.4,0,.6-.1.6-.4V142c0-.3-.2-.5-.6-.5h-2.8c-1.5,0-2.2-.6-2.2-1.8v-.6c0-1.2.7-1.8,2.2-1.8h4.8v1.2H253c-.3,0-.5.1-.5.4v1c0,.3.2.4.5.4h2.8c1.5,0,2.3.6,2.3,1.8v1.1c0,1.1-.8,1.7-2.3,1.7Z"/><path class="cls-2" d="M259.2,148.3a12.1,12.1,0,0,0,0-13.9H261a10.9,10.9,0,0,1,0,13.9Z"/><path class="cls-2" d="M31.2,180.9V170.4h2.9l4,8.4,4-8.4H45v10.5H42.7v-7.3l-3.5,7.3H37l-3.6-7.3v7.3Z"/><path class="cls-2" d="M46.3,180.9l5-10.5h2.5l5,10.5H56.5l-1.2-2.6H49.8l-1.2,2.6Zm4.2-4h4.2l-2.1-4.4Z"/><path class="cls-2" d="M60,180.9v-1.3h7.2c.4,0,.6-.2.6-.5v-2.6c0-.3-.2-.5-.6-.5H62.4c-1.6,0-2.4-.7-2.4-1.9v-1.8c0-1.3.8-1.9,2.4-1.9h6.9v1.3H62.9c-.4,0-.7.2-.7.6v1.8c0,.4.3.5.7.5h4.8c1.6,0,2.4.7,2.4,1.9V179c0,1.3-.8,1.9-2.4,1.9Z"/><path class="cls-2" d="M72.2,180.9v-1.3h7.2c.4,0,.6-.2.6-.5v-2.6c0-.3-.2-.5-.6-.5H74.6c-1.6,0-2.4-.7-2.4-1.9v-1.8c0-1.3.8-1.9,2.4-1.9h6.8v1.3H75a.5.5,0,0,0-.6.6v1.8c0,.4.2.5.6.5h4.8c1.6,0,2.4.7,2.4,1.9V179c0,1.3-.8,1.9-2.4,1.9Z"/><path class="cls-2" d="M84.6,175.2v-1.9h2.2v1.9Zm0,5.7V179h2.2v1.9Z"/><path class="cls-2" d="M95.8,171.7v-1.3h5.1v10.5H98.6v-9.2Z"/><path class="cls-2" d="M105,183l1.1-4h2.1l-1.6,4Z"/><path class="cls-2" d="M110.3,174.1v-1.8c0-1.3.8-1.9,2.4-1.9h4.7c1.6,0,2.4.6,2.4,1.9v6.3c0,1.6-1,2.3-2.9,2.3H111v-1.3h5.2c.9,0,1.3-.4,1.3-1V176h-4.8C111.1,176,110.3,175.3,110.3,174.1Zm2.3,0c0,.4.2.5.6.5h4.3v-2.3a.5.5,0,0,0-.6-.6h-3.7a.5.5,0,0,0-.6.6Z"/><path class="cls-2" d="M121.7,179v-2a1.6,1.6,0,0,1,1.1-1.7,1.8,1.8,0,0,1-1.1-1.8v-1.2c0-1.3.8-1.9,2.4-1.9h4.6c1.6,0,2.4.6,2.4,1.9v1.2a1.8,1.8,0,0,1-1.1,1.8,1.6,1.6,0,0,1,1.1,1.7v2c0,1.3-.8,1.9-2.4,1.9h-4.6C122.5,180.9,121.7,180.3,121.7,179Zm2.2-4.9c0,.4.2.5.7.5h3.6c.5,0,.7-.1.7-.5v-1.8c0-.4-.2-.6-.7-.6h-3.6c-.5,0-.7.2-.7.6Zm0,5c0,.3.2.5.7.5h3.6c.5,0,.7-.2.7-.5v-2.6c0-.3-.2-.5-.7-.5h-3.6c-.5,0-.7.2-.7.5Z"/><path class="cls-2" d="M133,180.9v-4.4c0-1.2.8-1.9,2.4-1.9h4.2c.4,0,.6-.1.6-.5v-1.8a.5.5,0,0,0-.6-.6h-5.8v-1.3h6.3c1.6,0,2.4.6,2.4,1.9v1.8c0,1.2-.8,1.9-2.4,1.9h-4.2c-.4,0-.6.2-.6.5v3.1h7.2v1.3Z"/><path class="cls-2" d="M149.6,184.3v-11h6.2c1.5,0,2.3.6,2.3,1.8v4.1c0,1.1-.8,1.7-2.3,1.7h-4.1v3.4Zm2.1-4.6h3.7c.4,0,.6-.1.6-.4v-4.4c0-.3-.2-.4-.6-.4h-3.7Z"/><path class="cls-2" d="M160.2,179.2v-4.1c0-1.2.7-1.8,2.2-1.8h4c1.5,0,2.2.6,2.2,1.8v4.1c0,1.1-.7,1.7-2.2,1.7h-4C160.9,180.9,160.2,180.3,160.2,179.2Zm2,.1c0,.3.2.4.6.4H166c.4,0,.6-.1.6-.4v-4.4c0-.3-.2-.4-.6-.4h-3.2c-.4,0-.6.1-.6.4Z"/><path class="cls-2" d="M170.7,179.2v-5.9h2.1v6c0,.3.2.4.6.4h3.7v-6.4h2.1v7.6H173C171.5,180.9,170.7,180.3,170.7,179.2Z"/><path class="cls-2" d="M181.3,180.9v-7.6h6.2c1.5,0,2.3.6,2.3,1.8v5.8h-2.1v-6c0-.3-.2-.4-.6-.4h-3.7v6.4Z"/><path class="cls-2" d="M191.8,179.2v-4.1c0-1.2.8-1.8,2.3-1.8h4.1v-2.9h2.1v10.5h-6.2C192.6,180.9,191.8,180.3,191.8,179.2Zm2.1.1c0,.3.2.4.6.4h3.7v-5.2h-3.7c-.4,0-.6.1-.6.4Z"/><path class="cls-2" d="M202.2,180.9v-1.2h5.1c.4,0,.5-.1.5-.4V178c0-.3-.1-.5-.5-.5h-2.8c-1.5,0-2.3-.6-2.3-1.8v-.6c0-1.2.8-1.8,2.3-1.8h4.8v1.2h-4.4c-.4,0-.6.1-.6.4v1c0,.3.2.4.6.4h2.8c1.5,0,2.2.6,2.2,1.8v1.1c0,1.1-.7,1.7-2.2,1.7Z"/><path class="cls-2" d="M217.1,177.3a10.5,10.5,0,0,1,2.5-6.9h1.8a12.1,12.1,0,0,0,0,13.9h-1.8A10.6,10.6,0,0,1,217.1,177.3Z"/><path class="cls-2" d="M223.1,179v-2a1.6,1.6,0,0,1,1.1-1.7,1.8,1.8,0,0,1-1.1-1.8v-1.2c0-1.3.8-1.9,2.4-1.9h4.7c1.6,0,2.4.6,2.4,1.9v1.2a1.7,1.7,0,0,1-1.2,1.8,1.6,1.6,0,0,1,1.2,1.7v2c0,1.3-.8,1.9-2.4,1.9h-4.7C223.9,180.9,223.1,180.3,223.1,179Zm2.3-4.9c0,.4.2.5.6.5h3.7c.4,0,.6-.1.6-.5v-1.8a.5.5,0,0,0-.6-.6H226a.5.5,0,0,0-.6.6Zm0,5c0,.3.2.5.6.5h3.7c.4,0,.6-.2.6-.5v-2.6c0-.3-.2-.5-.6-.5H226c-.4,0-.6.2-.6.5Z"/><path class="cls-2" d="M234.5,174.1v-1.8c0-1.3.8-1.9,2.4-1.9h4.6c1.6,0,2.4.6,2.4,1.9v6.3c0,1.6-.9,2.3-2.9,2.3h-5.9v-1.3h5.3c.9,0,1.3-.4,1.3-1V176h-4.8C235.3,176,234.5,175.3,234.5,174.1Zm2.2,0c0,.4.2.5.7.5h4.3v-2.3c0-.4-.2-.6-.7-.6h-3.6c-.5,0-.7.2-.7.6Z"/><path class="cls-2" d="M245.8,174.1v-1.8c0-1.3.8-1.9,2.4-1.9h4.7c1.6,0,2.4.6,2.4,1.9v6.3c0,1.6-1,2.3-2.9,2.3h-5.9v-1.3h5.3c.8,0,1.2-.4,1.2-1V176h-4.8C246.6,176,245.8,175.3,245.8,174.1Zm2.3,0c0,.4.2.5.6.5H253v-2.3a.5.5,0,0,0-.6-.6h-3.7a.5.5,0,0,0-.6.6Z"/><path class="cls-2" d="M31,216.9V206.4h2.1v6.3l3.6-3.4h2.5l-3.3,3.2,3.5,4.4H37.1l-2.5-3.1-1.5,1.4v1.7Z"/><path class="cls-2" d="M40.6,208v-1.6h2.1V208Zm0,8.9v-7.6h2.1v7.6Z"/><path class="cls-2" d="M44.8,216.9V206.4h2.1v10.5Z"/><path class="cls-2" d="M49,215.2v-4.1c0-1.2.7-1.8,2.2-1.8h4c1.5,0,2.2.6,2.2,1.8v4.1c0,1.1-.7,1.7-2.2,1.7h-4C49.7,216.9,49,216.3,49,215.2Zm2,.1c0,.3.2.4.6.4h3.2c.4,0,.6-.1.6-.4v-4.4c0-.3-.2-.4-.6-.4H51.6c-.4,0-.6.1-.6.4Z"/><path class="cls-2" d="M59.5,215.2v-4.1c0-1.2.8-1.8,2.3-1.8H68v9.2c0,1.2-.7,1.8-2.2,1.8h-6v-1.2h5.4c.5,0,.7-.2.7-.6v-1.6H61.8C60.3,216.9,59.5,216.3,59.5,215.2Zm2.1.1c0,.3.2.4.6.4h3.7v-5.2H62.2c-.4,0-.6.1-.6.4Z"/><path class="cls-2" d="M70.1,216.9v-5.8c0-1.2.7-1.8,2.2-1.8H75v1.2H72.7c-.4,0-.5.1-.5.4v6Z"/><path class="cls-2" d="M76.3,215.2v-1.1c0-1.2.8-1.8,2.3-1.8h3.8v-1.4c0-.3-.2-.4-.6-.4H77v-1.2h5.2c1.5,0,2.3.6,2.3,1.8v5.8H78.6C77.1,216.9,76.3,216.3,76.3,215.2Zm2.1.1c0,.3.2.4.6.4h3.4v-2.2H79c-.4,0-.6.2-.6.5Z"/><path class="cls-2" d="M86.6,216.9v-7.6H97.3c1.5,0,2.2.6,2.2,1.8v5.8H97.4v-6c0-.3-.1-.4-.5-.4H94.1v6.4H92v-6c0-.3-.2-.4-.6-.4H88.6v6.4Z"/><path class="cls-2" d="M101.4,216.9v-1.2h5.1c.4,0,.5-.1.5-.4V214c0-.3-.1-.5-.5-.5h-2.8c-1.5,0-2.3-.6-2.3-1.8v-.6c0-1.2.8-1.8,2.3-1.8h4.8v1.2h-4.4c-.4,0-.6.1-.6.4v1c0,.3.2.4.6.4h2.8c1.5,0,2.2.6,2.2,1.8v1.1c0,1.1-.7,1.7-2.2,1.7Z"/><path class="cls-2" d="M110.2,220.3a11.7,11.7,0,0,0,0-13.9h1.9a10.9,10.9,0,0,1,0,13.9Z"/></g></g></svg>