<?xml version="1.0" encoding="iso-8859-1"?>
<!-- Generator: Adobe Illustrator 16.0.0, SVG Export Plug-In . SVG Version: 6.00 Build 0)  -->
<!DOCTYPE svg PUBLIC "-//W3C//DTD SVG 1.1//EN" "http://www.w3.org/Graphics/SVG/1.1/DTD/svg11.dtd">
<svg version="1.1" id="Capa_1" xmlns="http://www.w3.org/2000/svg" xmlns:xlink="http://www.w3.org/1999/xlink" x="0px" y="0px"
	 width="497.199px" height="497.199px" viewBox="0 0 497.199 497.199" style="enable-background:new 0 0 497.199 497.199; fill: white"
	 xml:space="preserve">
<g>
	<g>
		<path d="M191.2,248.6c0,32.5,24.9,57.4,57.4,57.4c32.5,0,57.4-24.9,57.4-57.4c0-38.2-57.4-172.1-57.4-172.1
			S191.2,210.4,191.2,248.6z M286.801,248.6c0,21-17.201,38.201-38.201,38.201c-21,0-38.2-17.201-38.2-38.201
			c0-21,17.2-38.2,38.2-38.2C269.6,210.4,286.801,227.6,286.801,248.6z"/>
		<path d="M248.6,0C110.9,0,0,110.9,0,248.6c0,137.701,110.9,248.6,248.6,248.6c137.701,0,248.599-110.898,248.599-248.6
			C497.199,110.9,386.301,0,248.6,0z M248.6,478.1c-126.2,0-229.5-103.299-229.5-229.5c0-126.2,103.3-229.5,229.5-229.5
			c126.201,0,229.5,103.3,229.5,229.5C478.1,374.801,374.801,478.1,248.6,478.1z"/>
	</g>
</g>
<g>
</g>
<g>
</g>
<g>
</g>
<g>
</g>
<g>
</g>
<g>
</g>
<g>
</g>
<g>
</g>
<g>
</g>
<g>
</g>
<g>
</g>
<g>
</g>
<g>
</g>
<g>
</g>
<g>
</g>
</svg>
